<mxfile host="65bd71144e" pages="3">
    <diagram id="QQjH2MUaJkBNxbKhoaw-" name="Data collection">
        <mxGraphModel dx="775" dy="617" grid="1" gridSize="10" guides="1" tooltips="1" connect="1" arrows="1" fold="1" page="1" pageScale="1" pageWidth="850" pageHeight="1100" math="0" shadow="0">
            <root>
                <mxCell id="0"/>
                <mxCell id="1" parent="0"/>
                <mxCell id="85velxEUMiGb7WdinG91-88" value="" style="rounded=0;whiteSpace=wrap;html=1;fillColor=none;dashed=1;rotation=90;" parent="1" vertex="1">
                    <mxGeometry x="722.54" y="323.25" width="70.93" height="170" as="geometry"/>
                </mxCell>
                <mxCell id="85velxEUMiGb7WdinG91-46" value="" style="rounded=0;whiteSpace=wrap;html=1;fillColor=none;dashed=1;rotation=90;" parent="1" vertex="1">
                    <mxGeometry x="268.31" y="516.25" width="161.87" height="170" as="geometry"/>
                </mxCell>
                <mxCell id="85velxEUMiGb7WdinG91-37" value="" style="rounded=0;whiteSpace=wrap;html=1;fillColor=none;dashed=1;rotation=90;" parent="1" vertex="1">
                    <mxGeometry x="-19.25" y="440" width="167.5" height="85" as="geometry"/>
                </mxCell>
                <mxCell id="85velxEUMiGb7WdinG91-38" value="" style="rounded=0;whiteSpace=wrap;html=1;fillColor=none;dashed=1;rotation=90;" parent="1" vertex="1">
                    <mxGeometry x="-16.120000000000005" y="636.88" width="161.25" height="85" as="geometry"/>
                </mxCell>
                <mxCell id="85velxEUMiGb7WdinG91-13" style="edgeStyle=orthogonalEdgeStyle;rounded=0;orthogonalLoop=1;jettySize=auto;html=1;exitX=1;exitY=0.5;exitDx=0;exitDy=0;entryX=0;entryY=0.5;entryDx=0;entryDy=0;" parent="1" source="85velxEUMiGb7WdinG91-2" target="85velxEUMiGb7WdinG91-12" edge="1">
                    <mxGeometry relative="1" as="geometry"/>
                </mxCell>
                <mxCell id="85velxEUMiGb7WdinG91-2" value="isolate 1" style="rounded=1;whiteSpace=wrap;html=1;" parent="1" vertex="1">
                    <mxGeometry x="32" y="420" width="60" height="20" as="geometry"/>
                </mxCell>
                <mxCell id="85velxEUMiGb7WdinG91-14" style="edgeStyle=orthogonalEdgeStyle;rounded=0;orthogonalLoop=1;jettySize=auto;html=1;exitX=1;exitY=0.5;exitDx=0;exitDy=0;entryX=0;entryY=0.5;entryDx=0;entryDy=0;" parent="1" source="85velxEUMiGb7WdinG91-3" target="85velxEUMiGb7WdinG91-12" edge="1">
                    <mxGeometry relative="1" as="geometry"/>
                </mxCell>
                <mxCell id="85velxEUMiGb7WdinG91-3" value="isolate 2" style="rounded=1;whiteSpace=wrap;html=1;" parent="1" vertex="1">
                    <mxGeometry x="32" y="450" width="60" height="20" as="geometry"/>
                </mxCell>
                <mxCell id="85velxEUMiGb7WdinG91-15" style="edgeStyle=orthogonalEdgeStyle;rounded=0;orthogonalLoop=1;jettySize=auto;html=1;exitX=1;exitY=0.5;exitDx=0;exitDy=0;entryX=0;entryY=0.5;entryDx=0;entryDy=0;" parent="1" source="85velxEUMiGb7WdinG91-4" target="85velxEUMiGb7WdinG91-12" edge="1">
                    <mxGeometry relative="1" as="geometry"/>
                </mxCell>
                <mxCell id="85velxEUMiGb7WdinG91-4" value="isolate 3" style="rounded=1;whiteSpace=wrap;html=1;" parent="1" vertex="1">
                    <mxGeometry x="32" y="480" width="60" height="20" as="geometry"/>
                </mxCell>
                <mxCell id="85velxEUMiGb7WdinG91-16" style="edgeStyle=orthogonalEdgeStyle;rounded=0;orthogonalLoop=1;jettySize=auto;html=1;exitX=1;exitY=0.5;exitDx=0;exitDy=0;entryX=0;entryY=0.5;entryDx=0;entryDy=0;" parent="1" source="85velxEUMiGb7WdinG91-5" target="85velxEUMiGb7WdinG91-12" edge="1">
                    <mxGeometry relative="1" as="geometry"/>
                </mxCell>
                <mxCell id="85velxEUMiGb7WdinG91-5" value="isolate 4" style="rounded=1;whiteSpace=wrap;html=1;" parent="1" vertex="1">
                    <mxGeometry x="32" y="510" width="60" height="20" as="geometry"/>
                </mxCell>
                <mxCell id="85velxEUMiGb7WdinG91-6" value="" style="endArrow=none;dashed=1;html=1;dashPattern=1 3;strokeWidth=2;" parent="1" edge="1">
                    <mxGeometry width="50" height="50" relative="1" as="geometry">
                        <mxPoint x="61.829999999999984" y="560" as="sourcePoint"/>
                        <mxPoint x="61.829999999999984" y="530" as="targetPoint"/>
                    </mxGeometry>
                </mxCell>
                <mxCell id="85velxEUMiGb7WdinG91-17" style="edgeStyle=orthogonalEdgeStyle;rounded=0;orthogonalLoop=1;jettySize=auto;html=1;exitX=1;exitY=0.5;exitDx=0;exitDy=0;entryX=0;entryY=0.5;entryDx=0;entryDy=0;" parent="1" source="85velxEUMiGb7WdinG91-7" target="85velxEUMiGb7WdinG91-12" edge="1">
                    <mxGeometry relative="1" as="geometry"/>
                </mxCell>
                <mxCell id="85velxEUMiGb7WdinG91-7" value="gene 1" style="rounded=1;whiteSpace=wrap;html=1;" parent="1" vertex="1">
                    <mxGeometry x="32" y="610" width="60" height="20" as="geometry"/>
                </mxCell>
                <mxCell id="85velxEUMiGb7WdinG91-18" style="edgeStyle=orthogonalEdgeStyle;rounded=0;orthogonalLoop=1;jettySize=auto;html=1;exitX=1;exitY=0.5;exitDx=0;exitDy=0;entryX=0;entryY=0.5;entryDx=0;entryDy=0;" parent="1" source="85velxEUMiGb7WdinG91-8" target="85velxEUMiGb7WdinG91-12" edge="1">
                    <mxGeometry relative="1" as="geometry"/>
                </mxCell>
                <mxCell id="85velxEUMiGb7WdinG91-8" value="gene 2" style="rounded=1;whiteSpace=wrap;html=1;" parent="1" vertex="1">
                    <mxGeometry x="32" y="640" width="60" height="20" as="geometry"/>
                </mxCell>
                <mxCell id="85velxEUMiGb7WdinG91-19" style="edgeStyle=orthogonalEdgeStyle;rounded=0;orthogonalLoop=1;jettySize=auto;html=1;exitX=1;exitY=0.5;exitDx=0;exitDy=0;entryX=0;entryY=0.5;entryDx=0;entryDy=0;" parent="1" source="85velxEUMiGb7WdinG91-9" target="85velxEUMiGb7WdinG91-12" edge="1">
                    <mxGeometry relative="1" as="geometry"/>
                </mxCell>
                <mxCell id="85velxEUMiGb7WdinG91-9" value="gene 3" style="rounded=1;whiteSpace=wrap;html=1;" parent="1" vertex="1">
                    <mxGeometry x="32" y="670" width="60" height="20" as="geometry"/>
                </mxCell>
                <mxCell id="85velxEUMiGb7WdinG91-20" style="edgeStyle=orthogonalEdgeStyle;rounded=0;orthogonalLoop=1;jettySize=auto;html=1;exitX=1;exitY=0.5;exitDx=0;exitDy=0;entryX=0;entryY=0.5;entryDx=0;entryDy=0;" parent="1" source="85velxEUMiGb7WdinG91-10" target="85velxEUMiGb7WdinG91-12" edge="1">
                    <mxGeometry relative="1" as="geometry"/>
                </mxCell>
                <mxCell id="85velxEUMiGb7WdinG91-10" value="gene 4" style="rounded=1;whiteSpace=wrap;html=1;" parent="1" vertex="1">
                    <mxGeometry x="32" y="700" width="60" height="20" as="geometry"/>
                </mxCell>
                <mxCell id="85velxEUMiGb7WdinG91-11" value="" style="endArrow=none;dashed=1;html=1;dashPattern=1 3;strokeWidth=2;" parent="1" edge="1">
                    <mxGeometry width="50" height="50" relative="1" as="geometry">
                        <mxPoint x="61.82999999999993" y="750" as="sourcePoint"/>
                        <mxPoint x="61.82999999999993" y="720" as="targetPoint"/>
                    </mxGeometry>
                </mxCell>
                <mxCell id="85velxEUMiGb7WdinG91-27" style="edgeStyle=orthogonalEdgeStyle;rounded=0;orthogonalLoop=1;jettySize=auto;html=1;exitX=1;exitY=0.5;exitDx=0;exitDy=0;entryX=0;entryY=0.5;entryDx=0;entryDy=0;" parent="1" source="85velxEUMiGb7WdinG91-12" target="85velxEUMiGb7WdinG91-22" edge="1">
                    <mxGeometry relative="1" as="geometry">
                        <Array as="points">
                            <mxPoint x="252" y="585"/>
                            <mxPoint x="252" y="540"/>
                        </Array>
                    </mxGeometry>
                </mxCell>
                <mxCell id="85velxEUMiGb7WdinG91-28" style="edgeStyle=orthogonalEdgeStyle;rounded=0;orthogonalLoop=1;jettySize=auto;html=1;exitX=1;exitY=0.5;exitDx=0;exitDy=0;entryX=0;entryY=0.5;entryDx=0;entryDy=0;" parent="1" source="85velxEUMiGb7WdinG91-12" target="85velxEUMiGb7WdinG91-23" edge="1">
                    <mxGeometry relative="1" as="geometry">
                        <Array as="points">
                            <mxPoint x="252" y="585"/>
                            <mxPoint x="252" y="570"/>
                        </Array>
                    </mxGeometry>
                </mxCell>
                <mxCell id="85velxEUMiGb7WdinG91-29" style="edgeStyle=orthogonalEdgeStyle;rounded=0;orthogonalLoop=1;jettySize=auto;html=1;exitX=1;exitY=0.5;exitDx=0;exitDy=0;entryX=0;entryY=0.5;entryDx=0;entryDy=0;" parent="1" source="85velxEUMiGb7WdinG91-12" target="85velxEUMiGb7WdinG91-24" edge="1">
                    <mxGeometry relative="1" as="geometry">
                        <Array as="points">
                            <mxPoint x="252" y="585"/>
                            <mxPoint x="252" y="600"/>
                        </Array>
                    </mxGeometry>
                </mxCell>
                <mxCell id="85velxEUMiGb7WdinG91-30" style="edgeStyle=orthogonalEdgeStyle;rounded=0;orthogonalLoop=1;jettySize=auto;html=1;exitX=1;exitY=0.5;exitDx=0;exitDy=0;entryX=0;entryY=0.5;entryDx=0;entryDy=0;" parent="1" source="85velxEUMiGb7WdinG91-12" target="85velxEUMiGb7WdinG91-25" edge="1">
                    <mxGeometry relative="1" as="geometry">
                        <Array as="points">
                            <mxPoint x="252" y="585"/>
                            <mxPoint x="252" y="630"/>
                        </Array>
                    </mxGeometry>
                </mxCell>
                <mxCell id="85velxEUMiGb7WdinG91-12" value="AA Annotation&lt;br&gt;Pipeline" style="rounded=1;whiteSpace=wrap;html=1;" parent="1" vertex="1">
                    <mxGeometry x="152" y="560" width="60" height="50" as="geometry"/>
                </mxCell>
                <mxCell id="85velxEUMiGb7WdinG91-67" style="edgeStyle=orthogonalEdgeStyle;rounded=0;jumpStyle=gap;orthogonalLoop=1;jettySize=auto;html=1;exitX=1;exitY=0.5;exitDx=0;exitDy=0;jumpSize=15;entryX=0;entryY=0.5;entryDx=0;entryDy=0;" parent="1" source="85velxEUMiGb7WdinG91-22" target="85velxEUMiGb7WdinG91-56" edge="1">
                    <mxGeometry relative="1" as="geometry">
                        <mxPoint x="452" y="540" as="targetPoint"/>
                        <Array as="points">
                            <mxPoint x="442" y="540"/>
                            <mxPoint x="442" y="670"/>
                        </Array>
                    </mxGeometry>
                </mxCell>
                <mxCell id="85velxEUMiGb7WdinG91-71" style="edgeStyle=orthogonalEdgeStyle;rounded=0;jumpStyle=gap;jumpSize=15;orthogonalLoop=1;jettySize=auto;html=1;exitX=1;exitY=0.5;exitDx=0;exitDy=0;entryX=0;entryY=0.75;entryDx=0;entryDy=0;" parent="1" source="85velxEUMiGb7WdinG91-22" target="85velxEUMiGb7WdinG91-49" edge="1">
                    <mxGeometry relative="1" as="geometry">
                        <Array as="points">
                            <mxPoint x="442" y="540"/>
                            <mxPoint x="442" y="359"/>
                        </Array>
                    </mxGeometry>
                </mxCell>
                <mxCell id="85velxEUMiGb7WdinG91-22" value="export_msa_#_gene1.xlsx" style="rounded=1;whiteSpace=wrap;html=1;" parent="1" vertex="1">
                    <mxGeometry x="278" y="530" width="150" height="20" as="geometry"/>
                </mxCell>
                <mxCell id="85velxEUMiGb7WdinG91-68" style="edgeStyle=orthogonalEdgeStyle;rounded=0;jumpStyle=gap;jumpSize=15;orthogonalLoop=1;jettySize=auto;html=1;exitX=1;exitY=0.5;exitDx=0;exitDy=0;entryX=0;entryY=0.5;entryDx=0;entryDy=0;" parent="1" source="85velxEUMiGb7WdinG91-23" target="85velxEUMiGb7WdinG91-57" edge="1">
                    <mxGeometry relative="1" as="geometry">
                        <Array as="points">
                            <mxPoint x="452" y="570"/>
                            <mxPoint x="452" y="700"/>
                        </Array>
                    </mxGeometry>
                </mxCell>
                <mxCell id="85velxEUMiGb7WdinG91-72" style="edgeStyle=orthogonalEdgeStyle;rounded=0;jumpStyle=gap;jumpSize=15;orthogonalLoop=1;jettySize=auto;html=1;exitX=1;exitY=0.5;exitDx=0;exitDy=0;entryX=0;entryY=0.5;entryDx=0;entryDy=0;" parent="1" source="85velxEUMiGb7WdinG91-23" target="85velxEUMiGb7WdinG91-50" edge="1">
                    <mxGeometry relative="1" as="geometry">
                        <Array as="points">
                            <mxPoint x="452" y="570"/>
                            <mxPoint x="452" y="384"/>
                        </Array>
                    </mxGeometry>
                </mxCell>
                <mxCell id="85velxEUMiGb7WdinG91-23" value="&lt;span&gt;export_msa_#_gene2.xlsx&lt;/span&gt;" style="rounded=1;whiteSpace=wrap;html=1;" parent="1" vertex="1">
                    <mxGeometry x="278" y="560" width="150" height="20" as="geometry"/>
                </mxCell>
                <mxCell id="85velxEUMiGb7WdinG91-69" style="edgeStyle=orthogonalEdgeStyle;rounded=0;jumpStyle=gap;jumpSize=15;orthogonalLoop=1;jettySize=auto;html=1;exitX=1;exitY=0.5;exitDx=0;exitDy=0;entryX=0;entryY=0.5;entryDx=0;entryDy=0;" parent="1" source="85velxEUMiGb7WdinG91-24" target="85velxEUMiGb7WdinG91-58" edge="1">
                    <mxGeometry relative="1" as="geometry">
                        <Array as="points">
                            <mxPoint x="462" y="600"/>
                            <mxPoint x="462" y="730"/>
                        </Array>
                    </mxGeometry>
                </mxCell>
                <mxCell id="85velxEUMiGb7WdinG91-73" style="edgeStyle=orthogonalEdgeStyle;rounded=0;jumpStyle=gap;jumpSize=15;orthogonalLoop=1;jettySize=auto;html=1;exitX=1;exitY=0.5;exitDx=0;exitDy=0;entryX=0;entryY=0.5;entryDx=0;entryDy=0;" parent="1" source="85velxEUMiGb7WdinG91-24" target="85velxEUMiGb7WdinG91-51" edge="1">
                    <mxGeometry relative="1" as="geometry">
                        <Array as="points">
                            <mxPoint x="462" y="600"/>
                            <mxPoint x="462" y="414"/>
                        </Array>
                    </mxGeometry>
                </mxCell>
                <mxCell id="85velxEUMiGb7WdinG91-24" value="&lt;span&gt;export_msa_#_gene3.xlsx&lt;/span&gt;" style="rounded=1;whiteSpace=wrap;html=1;" parent="1" vertex="1">
                    <mxGeometry x="278" y="590" width="150" height="20" as="geometry"/>
                </mxCell>
                <mxCell id="85velxEUMiGb7WdinG91-70" style="edgeStyle=orthogonalEdgeStyle;rounded=0;jumpStyle=gap;jumpSize=15;orthogonalLoop=1;jettySize=auto;html=1;exitX=1;exitY=0.5;exitDx=0;exitDy=0;entryX=0;entryY=0.5;entryDx=0;entryDy=0;" parent="1" source="85velxEUMiGb7WdinG91-25" target="85velxEUMiGb7WdinG91-59" edge="1">
                    <mxGeometry relative="1" as="geometry">
                        <Array as="points">
                            <mxPoint x="472" y="630"/>
                            <mxPoint x="472" y="760"/>
                        </Array>
                    </mxGeometry>
                </mxCell>
                <mxCell id="85velxEUMiGb7WdinG91-74" style="edgeStyle=orthogonalEdgeStyle;rounded=0;jumpStyle=gap;jumpSize=15;orthogonalLoop=1;jettySize=auto;html=1;exitX=1;exitY=0.5;exitDx=0;exitDy=0;entryX=0;entryY=0.5;entryDx=0;entryDy=0;" parent="1" source="85velxEUMiGb7WdinG91-25" target="85velxEUMiGb7WdinG91-52" edge="1">
                    <mxGeometry relative="1" as="geometry">
                        <Array as="points">
                            <mxPoint x="472" y="630"/>
                            <mxPoint x="472" y="444"/>
                        </Array>
                    </mxGeometry>
                </mxCell>
                <mxCell id="85velxEUMiGb7WdinG91-25" value="&lt;span&gt;export_msa_#_gene4.xlsx&lt;/span&gt;" style="rounded=1;whiteSpace=wrap;html=1;" parent="1" vertex="1">
                    <mxGeometry x="278" y="620" width="150" height="20" as="geometry"/>
                </mxCell>
                <mxCell id="85velxEUMiGb7WdinG91-26" value="" style="endArrow=none;dashed=1;html=1;dashPattern=1 3;strokeWidth=2;" parent="1" edge="1">
                    <mxGeometry width="50" height="50" relative="1" as="geometry">
                        <mxPoint x="352.7599999999999" y="670" as="sourcePoint"/>
                        <mxPoint x="352.7599999999999" y="640" as="targetPoint"/>
                    </mxGeometry>
                </mxCell>
                <mxCell id="85velxEUMiGb7WdinG91-45" style="edgeStyle=orthogonalEdgeStyle;rounded=0;orthogonalLoop=1;jettySize=auto;html=1;exitX=0.5;exitY=1;exitDx=0;exitDy=0;entryX=0.5;entryY=0;entryDx=0;entryDy=0;" parent="1" source="85velxEUMiGb7WdinG91-31" target="85velxEUMiGb7WdinG91-12" edge="1">
                    <mxGeometry relative="1" as="geometry"/>
                </mxCell>
                <mxCell id="85velxEUMiGb7WdinG91-31" value="JMI's MVP" style="rounded=1;whiteSpace=wrap;html=1;" parent="1" vertex="1">
                    <mxGeometry x="147" y="491.25" width="70" height="20" as="geometry"/>
                </mxCell>
                <mxCell id="85velxEUMiGb7WdinG91-36" value="MIC values" style="text;html=1;strokeColor=none;fillColor=none;align=center;verticalAlign=middle;whiteSpace=wrap;rounded=0;" parent="1" vertex="1">
                    <mxGeometry x="182" y="525" width="70" height="20" as="geometry"/>
                </mxCell>
                <mxCell id="85velxEUMiGb7WdinG91-39" value="&lt;b&gt;All isolates&lt;/b&gt;" style="text;html=1;align=center;verticalAlign=middle;resizable=0;points=[];autosize=1;" parent="1" vertex="1">
                    <mxGeometry x="24.5" y="380" width="80" height="20" as="geometry"/>
                </mxCell>
                <mxCell id="85velxEUMiGb7WdinG91-40" value="&lt;b&gt;All genes&lt;/b&gt;" style="text;html=1;align=center;verticalAlign=middle;resizable=0;points=[];autosize=1;" parent="1" vertex="1">
                    <mxGeometry x="29.5" y="580" width="70" height="20" as="geometry"/>
                </mxCell>
                <mxCell id="85velxEUMiGb7WdinG91-43" value="&lt;b&gt;Exports from pipeline&lt;/b&gt;" style="text;html=1;align=center;verticalAlign=middle;resizable=0;points=[];autosize=1;" parent="1" vertex="1">
                    <mxGeometry x="273" y="500" width="140" height="20" as="geometry"/>
                </mxCell>
                <mxCell id="85velxEUMiGb7WdinG91-48" value="" style="rounded=0;whiteSpace=wrap;html=1;fillColor=none;dashed=1;rotation=90;" parent="1" vertex="1">
                    <mxGeometry x="482" y="330" width="161.87" height="170" as="geometry"/>
                </mxCell>
                <mxCell id="85velxEUMiGb7WdinG91-92" style="edgeStyle=orthogonalEdgeStyle;rounded=0;jumpStyle=gap;jumpSize=15;orthogonalLoop=1;jettySize=auto;html=1;exitX=1;exitY=0.5;exitDx=0;exitDy=0;entryX=0.25;entryY=1;entryDx=0;entryDy=0;" parent="1" source="85velxEUMiGb7WdinG91-49" target="85velxEUMiGb7WdinG91-88" edge="1">
                    <mxGeometry relative="1" as="geometry">
                        <Array as="points">
                            <mxPoint x="660" y="354"/>
                            <mxPoint x="660" y="391"/>
                        </Array>
                    </mxGeometry>
                </mxCell>
                <mxCell id="85velxEUMiGb7WdinG91-49" value="antibiotics_gene1.tsv" style="rounded=1;whiteSpace=wrap;html=1;" parent="1" vertex="1">
                    <mxGeometry x="491.69000000000005" y="343.75" width="150" height="20" as="geometry"/>
                </mxCell>
                <mxCell id="85velxEUMiGb7WdinG91-93" style="edgeStyle=orthogonalEdgeStyle;rounded=0;jumpStyle=gap;jumpSize=15;orthogonalLoop=1;jettySize=auto;html=1;exitX=1;exitY=0.5;exitDx=0;exitDy=0;entryX=0.25;entryY=1;entryDx=0;entryDy=0;" parent="1" source="85velxEUMiGb7WdinG91-50" target="85velxEUMiGb7WdinG91-88" edge="1">
                    <mxGeometry relative="1" as="geometry">
                        <Array as="points">
                            <mxPoint x="660" y="384"/>
                            <mxPoint x="660" y="391"/>
                        </Array>
                    </mxGeometry>
                </mxCell>
                <mxCell id="85velxEUMiGb7WdinG91-50" value="&lt;span&gt;antibiotics_gene2.tsv&lt;/span&gt;" style="rounded=1;whiteSpace=wrap;html=1;" parent="1" vertex="1">
                    <mxGeometry x="491.69000000000005" y="373.75" width="150" height="20" as="geometry"/>
                </mxCell>
                <mxCell id="85velxEUMiGb7WdinG91-94" style="edgeStyle=orthogonalEdgeStyle;rounded=0;jumpStyle=gap;jumpSize=15;orthogonalLoop=1;jettySize=auto;html=1;exitX=1;exitY=0.5;exitDx=0;exitDy=0;entryX=0.25;entryY=1;entryDx=0;entryDy=0;" parent="1" source="85velxEUMiGb7WdinG91-51" target="85velxEUMiGb7WdinG91-88" edge="1">
                    <mxGeometry relative="1" as="geometry">
                        <Array as="points">
                            <mxPoint x="660" y="414"/>
                            <mxPoint x="660" y="391"/>
                        </Array>
                    </mxGeometry>
                </mxCell>
                <mxCell id="85velxEUMiGb7WdinG91-51" value="&lt;span&gt;antibiotics_gene3.tsv&lt;/span&gt;" style="rounded=1;whiteSpace=wrap;html=1;" parent="1" vertex="1">
                    <mxGeometry x="491.69000000000005" y="403.75" width="150" height="20" as="geometry"/>
                </mxCell>
                <mxCell id="85velxEUMiGb7WdinG91-95" style="edgeStyle=orthogonalEdgeStyle;rounded=0;jumpStyle=gap;jumpSize=15;orthogonalLoop=1;jettySize=auto;html=1;exitX=1;exitY=0.5;exitDx=0;exitDy=0;entryX=0.25;entryY=1;entryDx=0;entryDy=0;" parent="1" source="85velxEUMiGb7WdinG91-52" target="85velxEUMiGb7WdinG91-88" edge="1">
                    <mxGeometry relative="1" as="geometry">
                        <Array as="points">
                            <mxPoint x="660" y="444"/>
                            <mxPoint x="660" y="391"/>
                        </Array>
                    </mxGeometry>
                </mxCell>
                <mxCell id="85velxEUMiGb7WdinG91-52" value="&lt;span&gt;antibiotics_gene4.tsv&lt;/span&gt;" style="rounded=1;whiteSpace=wrap;html=1;" parent="1" vertex="1">
                    <mxGeometry x="491.69000000000005" y="433.75" width="150" height="20" as="geometry"/>
                </mxCell>
                <mxCell id="85velxEUMiGb7WdinG91-53" value="" style="endArrow=none;dashed=1;html=1;dashPattern=1 3;strokeWidth=2;" parent="1" edge="1">
                    <mxGeometry width="50" height="50" relative="1" as="geometry">
                        <mxPoint x="566.4499999999998" y="483.75" as="sourcePoint"/>
                        <mxPoint x="566.4499999999998" y="453.75" as="targetPoint"/>
                    </mxGeometry>
                </mxCell>
                <mxCell id="85velxEUMiGb7WdinG91-54" value="&lt;b&gt;Separated MICs&lt;/b&gt;" style="text;html=1;align=center;verticalAlign=middle;resizable=0;points=[];autosize=1;" parent="1" vertex="1">
                    <mxGeometry x="501.69000000000005" y="313.75" width="110" height="20" as="geometry"/>
                </mxCell>
                <mxCell id="85velxEUMiGb7WdinG91-55" value="" style="rounded=0;whiteSpace=wrap;html=1;fillColor=none;dashed=1;rotation=90;" parent="1" vertex="1">
                    <mxGeometry x="482" y="646.25" width="161.87" height="170" as="geometry"/>
                </mxCell>
                <mxCell id="85velxEUMiGb7WdinG91-82" style="edgeStyle=orthogonalEdgeStyle;rounded=0;jumpStyle=gap;jumpSize=15;orthogonalLoop=1;jettySize=auto;html=1;exitX=1;exitY=0.5;exitDx=0;exitDy=0;entryX=0;entryY=0.5;entryDx=0;entryDy=0;" parent="1" source="85velxEUMiGb7WdinG91-56" target="85velxEUMiGb7WdinG91-76" edge="1">
                    <mxGeometry relative="1" as="geometry"/>
                </mxCell>
                <mxCell id="85velxEUMiGb7WdinG91-56" value="export_msa_#_gene1.csv" style="rounded=1;whiteSpace=wrap;html=1;" parent="1" vertex="1">
                    <mxGeometry x="491.69000000000005" y="660" width="150" height="20" as="geometry"/>
                </mxCell>
                <mxCell id="85velxEUMiGb7WdinG91-83" style="edgeStyle=orthogonalEdgeStyle;rounded=0;jumpStyle=gap;jumpSize=15;orthogonalLoop=1;jettySize=auto;html=1;exitX=1;exitY=0.5;exitDx=0;exitDy=0;entryX=0;entryY=0.5;entryDx=0;entryDy=0;" parent="1" source="85velxEUMiGb7WdinG91-57" target="85velxEUMiGb7WdinG91-77" edge="1">
                    <mxGeometry relative="1" as="geometry"/>
                </mxCell>
                <mxCell id="85velxEUMiGb7WdinG91-57" value="&lt;span&gt;export_msa_#_gene2.csv&lt;/span&gt;" style="rounded=1;whiteSpace=wrap;html=1;" parent="1" vertex="1">
                    <mxGeometry x="491.69000000000005" y="690" width="150" height="20" as="geometry"/>
                </mxCell>
                <mxCell id="85velxEUMiGb7WdinG91-84" style="edgeStyle=orthogonalEdgeStyle;rounded=0;jumpStyle=gap;jumpSize=15;orthogonalLoop=1;jettySize=auto;html=1;exitX=1;exitY=0.5;exitDx=0;exitDy=0;entryX=0;entryY=0.5;entryDx=0;entryDy=0;" parent="1" source="85velxEUMiGb7WdinG91-58" target="85velxEUMiGb7WdinG91-78" edge="1">
                    <mxGeometry relative="1" as="geometry"/>
                </mxCell>
                <mxCell id="85velxEUMiGb7WdinG91-58" value="export_msa_#_gene3.csv" style="rounded=1;whiteSpace=wrap;html=1;" parent="1" vertex="1">
                    <mxGeometry x="491.69000000000005" y="720" width="150" height="20" as="geometry"/>
                </mxCell>
                <mxCell id="85velxEUMiGb7WdinG91-85" style="edgeStyle=orthogonalEdgeStyle;rounded=0;jumpStyle=gap;jumpSize=15;orthogonalLoop=1;jettySize=auto;html=1;exitX=1;exitY=0.5;exitDx=0;exitDy=0;entryX=0;entryY=0.5;entryDx=0;entryDy=0;" parent="1" source="85velxEUMiGb7WdinG91-59" target="85velxEUMiGb7WdinG91-79" edge="1">
                    <mxGeometry relative="1" as="geometry"/>
                </mxCell>
                <mxCell id="85velxEUMiGb7WdinG91-59" value="&lt;span&gt;export_msa_#_gene4.csv&lt;/span&gt;" style="rounded=1;whiteSpace=wrap;html=1;" parent="1" vertex="1">
                    <mxGeometry x="491.69000000000005" y="750" width="150" height="20" as="geometry"/>
                </mxCell>
                <mxCell id="85velxEUMiGb7WdinG91-60" value="" style="endArrow=none;dashed=1;html=1;dashPattern=1 3;strokeWidth=2;" parent="1" edge="1">
                    <mxGeometry width="50" height="50" relative="1" as="geometry">
                        <mxPoint x="566.4499999999998" y="800" as="sourcePoint"/>
                        <mxPoint x="566.4499999999998" y="770" as="targetPoint"/>
                    </mxGeometry>
                </mxCell>
                <mxCell id="85velxEUMiGb7WdinG91-61" value="&lt;b&gt;MSAs for each gene&lt;/b&gt;" style="text;html=1;align=center;verticalAlign=middle;resizable=0;points=[];autosize=1;" parent="1" vertex="1">
                    <mxGeometry x="491.69000000000005" y="630" width="130" height="20" as="geometry"/>
                </mxCell>
                <mxCell id="85velxEUMiGb7WdinG91-75" value="" style="rounded=0;whiteSpace=wrap;html=1;fillColor=none;dashed=1;rotation=90;" parent="1" vertex="1">
                    <mxGeometry x="670" y="646.25" width="161.87" height="170" as="geometry"/>
                </mxCell>
                <mxCell id="85velxEUMiGb7WdinG91-76" value="form_3_gene1.csv" style="rounded=1;whiteSpace=wrap;html=1;" parent="1" vertex="1">
                    <mxGeometry x="679.69" y="660" width="150" height="20" as="geometry"/>
                </mxCell>
                <mxCell id="85velxEUMiGb7WdinG91-77" value="form_3_gene2.csv" style="rounded=1;whiteSpace=wrap;html=1;" parent="1" vertex="1">
                    <mxGeometry x="679.69" y="690" width="150" height="20" as="geometry"/>
                </mxCell>
                <mxCell id="85velxEUMiGb7WdinG91-78" value="form_3_gene3.csv" style="rounded=1;whiteSpace=wrap;html=1;" parent="1" vertex="1">
                    <mxGeometry x="679.69" y="720" width="150" height="20" as="geometry"/>
                </mxCell>
                <mxCell id="85velxEUMiGb7WdinG91-79" value="form_3_gene4.csv" style="rounded=1;whiteSpace=wrap;html=1;" parent="1" vertex="1">
                    <mxGeometry x="679.69" y="750" width="150" height="20" as="geometry"/>
                </mxCell>
                <mxCell id="85velxEUMiGb7WdinG91-80" value="" style="endArrow=none;dashed=1;html=1;dashPattern=1 3;strokeWidth=2;" parent="1" edge="1">
                    <mxGeometry width="50" height="50" relative="1" as="geometry">
                        <mxPoint x="754.4499999999998" y="800" as="sourcePoint"/>
                        <mxPoint x="754.4499999999998" y="770" as="targetPoint"/>
                    </mxGeometry>
                </mxCell>
                <mxCell id="85velxEUMiGb7WdinG91-81" value="&lt;b&gt;Form 3 preprocessing&lt;/b&gt;" style="text;html=1;align=center;verticalAlign=middle;resizable=0;points=[];autosize=1;" parent="1" vertex="1">
                    <mxGeometry x="674.69" y="630" width="140" height="20" as="geometry"/>
                </mxCell>
                <mxCell id="85velxEUMiGb7WdinG91-86" value="labels.csv" style="rounded=1;whiteSpace=wrap;html=1;" parent="1" vertex="1">
                    <mxGeometry x="683" y="383.25" width="150" height="20" as="geometry"/>
                </mxCell>
                <mxCell id="85velxEUMiGb7WdinG91-87" value="&lt;span&gt;mic_set.csv&lt;/span&gt;" style="rounded=1;whiteSpace=wrap;html=1;" parent="1" vertex="1">
                    <mxGeometry x="683" y="413.25" width="150" height="20" as="geometry"/>
                </mxCell>
                <mxCell id="85velxEUMiGb7WdinG91-89" value="&lt;b&gt;Label preprocessing&lt;/b&gt;" style="text;html=1;align=center;verticalAlign=middle;resizable=0;points=[];autosize=1;" parent="1" vertex="1">
                    <mxGeometry x="692.69" y="353.75" width="130" height="20" as="geometry"/>
                </mxCell>
            </root>
        </mxGraphModel>
    </diagram>
    <diagram id="-8XFdim7uRY99fmxH4Hl" name="Model workflow">
        &#xa;
        <mxGraphModel dx="677" dy="391" grid="1" gridSize="10" guides="1" tooltips="1" connect="1" arrows="1" fold="1" page="1" pageScale="1" pageWidth="850" pageHeight="1100" math="0" shadow="0">
            &#xa;            &#xa;&#xa;
            <root>
                &#xa;                &#xa;&#xa;
                <mxCell id="jPrEDTAAYlk9A_LRm5N0-0"/>
                &#xa;                &#xa;&#xa;
                <mxCell id="jPrEDTAAYlk9A_LRm5N0-1" parent="jPrEDTAAYlk9A_LRm5N0-0"/>
                &#xa;                &#xa;&#xa;
                <mxCell id="l2xlCw3EaLijWo7BOLk1-38" value="" style="rounded=0;whiteSpace=wrap;html=1;fillColor=none;dashed=1;rotation=90;" vertex="1" parent="jPrEDTAAYlk9A_LRm5N0-1">
                    &#xa;                    &#xa;&#xa;
                    <mxGeometry x="305.87" y="490.02" width="170.06" height="301.66" as="geometry"/>
                    &#xa;                    &#xa;&#xa;
                </mxCell>
                &#xa;                &#xa;&#xa;
                <mxCell id="l2xlCw3EaLijWo7BOLk1-0" value="" style="rounded=0;whiteSpace=wrap;html=1;fillColor=none;dashed=1;rotation=90;" vertex="1" parent="jPrEDTAAYlk9A_LRm5N0-1">
                    &#xa;                    &#xa;&#xa;
                    <mxGeometry x="72.19999999999999" y="436.75" width="37.46" height="170" as="geometry"/>
                    &#xa;                    &#xa;&#xa;
                </mxCell>
                &#xa;                &#xa;&#xa;
                <mxCell id="l2xlCw3EaLijWo7BOLk1-1" value="" style="rounded=0;whiteSpace=wrap;html=1;fillColor=none;dashed=1;rotation=90;" vertex="1" parent="jPrEDTAAYlk9A_LRm5N0-1">
                    &#xa;                    &#xa;&#xa;
                    <mxGeometry x="10" y="563" width="161.87" height="170" as="geometry"/>
                    &#xa;                    &#xa;&#xa;
                </mxCell>
                &#xa;                &#xa;&#xa;
                <mxCell id="l2xlCw3EaLijWo7BOLk1-25" style="edgeStyle=orthogonalEdgeStyle;rounded=0;jumpStyle=gap;jumpSize=15;orthogonalLoop=1;jettySize=auto;html=1;exitX=1;exitY=0.5;exitDx=0;exitDy=0;entryX=0;entryY=0.5;entryDx=0;entryDy=0;" edge="1" parent="jPrEDTAAYlk9A_LRm5N0-1" source="l2xlCw3EaLijWo7BOLk1-2" target="l2xlCw3EaLijWo7BOLk1-11">
                    &#xa;                    &#xa;&#xa;
                    <mxGeometry relative="1" as="geometry"/>
                    &#xa;                    &#xa;&#xa;
                </mxCell>
                &#xa;                &#xa;&#xa;
                <mxCell id="l2xlCw3EaLijWo7BOLk1-2" value="form_3_gene1.csv" style="rounded=1;whiteSpace=wrap;html=1;" vertex="1" parent="jPrEDTAAYlk9A_LRm5N0-1">
                    &#xa;                    &#xa;&#xa;
                    <mxGeometry x="19.690000000000055" y="576.75" width="150" height="20" as="geometry"/>
                    &#xa;                    &#xa;&#xa;
                </mxCell>
                &#xa;                &#xa;&#xa;
                <mxCell id="l2xlCw3EaLijWo7BOLk1-26" style="edgeStyle=orthogonalEdgeStyle;rounded=0;jumpStyle=gap;jumpSize=15;orthogonalLoop=1;jettySize=auto;html=1;exitX=1;exitY=0.5;exitDx=0;exitDy=0;entryX=0;entryY=0.5;entryDx=0;entryDy=0;" edge="1" parent="jPrEDTAAYlk9A_LRm5N0-1" source="l2xlCw3EaLijWo7BOLk1-3" target="l2xlCw3EaLijWo7BOLk1-12">
                    &#xa;                    &#xa;&#xa;
                    <mxGeometry relative="1" as="geometry"/>
                    &#xa;                    &#xa;&#xa;
                </mxCell>
                &#xa;                &#xa;&#xa;
                <mxCell id="l2xlCw3EaLijWo7BOLk1-3" value="form_3_gene2.csv" style="rounded=1;whiteSpace=wrap;html=1;" vertex="1" parent="jPrEDTAAYlk9A_LRm5N0-1">
                    &#xa;                    &#xa;&#xa;
                    <mxGeometry x="19.690000000000055" y="606.75" width="150" height="20" as="geometry"/>
                    &#xa;                    &#xa;&#xa;
                </mxCell>
                &#xa;                &#xa;&#xa;
                <mxCell id="l2xlCw3EaLijWo7BOLk1-27" style="edgeStyle=orthogonalEdgeStyle;rounded=0;jumpStyle=gap;jumpSize=15;orthogonalLoop=1;jettySize=auto;html=1;exitX=1;exitY=0.5;exitDx=0;exitDy=0;entryX=0;entryY=0.5;entryDx=0;entryDy=0;" edge="1" parent="jPrEDTAAYlk9A_LRm5N0-1" source="l2xlCw3EaLijWo7BOLk1-4" target="l2xlCw3EaLijWo7BOLk1-13">
                    &#xa;                    &#xa;&#xa;
                    <mxGeometry relative="1" as="geometry"/>
                    &#xa;                    &#xa;&#xa;
                </mxCell>
                &#xa;                &#xa;&#xa;
                <mxCell id="l2xlCw3EaLijWo7BOLk1-4" value="form_3_gene3.csv" style="rounded=1;whiteSpace=wrap;html=1;" vertex="1" parent="jPrEDTAAYlk9A_LRm5N0-1">
                    &#xa;                    &#xa;&#xa;
                    <mxGeometry x="19.690000000000055" y="636.75" width="150" height="20" as="geometry"/>
                    &#xa;                    &#xa;&#xa;
                </mxCell>
                &#xa;                &#xa;&#xa;
                <mxCell id="l2xlCw3EaLijWo7BOLk1-28" style="edgeStyle=orthogonalEdgeStyle;rounded=0;jumpStyle=gap;jumpSize=15;orthogonalLoop=1;jettySize=auto;html=1;exitX=1;exitY=0.5;exitDx=0;exitDy=0;entryX=0;entryY=0.5;entryDx=0;entryDy=0;" edge="1" parent="jPrEDTAAYlk9A_LRm5N0-1" source="l2xlCw3EaLijWo7BOLk1-5" target="l2xlCw3EaLijWo7BOLk1-14">
                    &#xa;                    &#xa;&#xa;
                    <mxGeometry relative="1" as="geometry"/>
                    &#xa;                    &#xa;&#xa;
                </mxCell>
                &#xa;                &#xa;&#xa;
                <mxCell id="l2xlCw3EaLijWo7BOLk1-5" value="form_3_gene4.csv" style="rounded=1;whiteSpace=wrap;html=1;" vertex="1" parent="jPrEDTAAYlk9A_LRm5N0-1">
                    &#xa;                    &#xa;&#xa;
                    <mxGeometry x="19.690000000000055" y="666.75" width="150" height="20" as="geometry"/>
                    &#xa;                    &#xa;&#xa;
                </mxCell>
                &#xa;                &#xa;&#xa;
                <mxCell id="l2xlCw3EaLijWo7BOLk1-6" value="" style="endArrow=none;dashed=1;html=1;dashPattern=1 3;strokeWidth=2;" edge="1" parent="jPrEDTAAYlk9A_LRm5N0-1">
                    &#xa;                    &#xa;&#xa;
                    <mxGeometry width="50" height="50" relative="1" as="geometry">
                        &#xa;                        &#xa;&#xa;
                        <mxPoint x="94.44999999999982" y="716.75" as="sourcePoint"/>
                        &#xa;                        &#xa;&#xa;
                        <mxPoint x="94.44999999999982" y="686.75" as="targetPoint"/>
                        &#xa;                        &#xa;&#xa;
                    </mxGeometry>
                    &#xa;                    &#xa;&#xa;
                </mxCell>
                &#xa;                &#xa;&#xa;
                <mxCell id="l2xlCw3EaLijWo7BOLk1-7" value="&lt;b&gt;Processed MSA&lt;/b&gt;" style="text;html=1;align=center;verticalAlign=middle;resizable=0;points=[];autosize=1;" vertex="1" parent="jPrEDTAAYlk9A_LRm5N0-1">
                    &#xa;                    &#xa;&#xa;
                    <mxGeometry x="29.690000000000055" y="546.75" width="110" height="20" as="geometry"/>
                    &#xa;                    &#xa;&#xa;
                </mxCell>
                &#xa;                &#xa;&#xa;
                <mxCell id="l2xlCw3EaLijWo7BOLk1-29" style="edgeStyle=orthogonalEdgeStyle;rounded=0;jumpStyle=gap;jumpSize=15;orthogonalLoop=1;jettySize=auto;html=1;exitX=1;exitY=0.5;exitDx=0;exitDy=0;entryX=0;entryY=0.5;entryDx=0;entryDy=0;" edge="1" parent="jPrEDTAAYlk9A_LRm5N0-1" source="l2xlCw3EaLijWo7BOLk1-8" target="l2xlCw3EaLijWo7BOLk1-11">
                    &#xa;                    &#xa;&#xa;
                    <mxGeometry relative="1" as="geometry">
                        &#xa;                        &#xa;&#xa;
                        <Array as="points">
                            &#xa;                            &#xa;&#xa;
                            <mxPoint x="220" y="524"/>
                            &#xa;                            &#xa;&#xa;
                            <mxPoint x="220" y="587"/>
                            &#xa;                            &#xa;&#xa;
                        </Array>
                        &#xa;                        &#xa;&#xa;
                    </mxGeometry>
                    &#xa;                    &#xa;&#xa;
                </mxCell>
                &#xa;                &#xa;&#xa;
                <mxCell id="l2xlCw3EaLijWo7BOLk1-30" style="edgeStyle=orthogonalEdgeStyle;rounded=0;jumpStyle=gap;jumpSize=15;orthogonalLoop=1;jettySize=auto;html=1;exitX=1;exitY=0.5;exitDx=0;exitDy=0;entryX=0;entryY=0.5;entryDx=0;entryDy=0;" edge="1" parent="jPrEDTAAYlk9A_LRm5N0-1" source="l2xlCw3EaLijWo7BOLk1-8" target="l2xlCw3EaLijWo7BOLk1-12">
                    &#xa;                    &#xa;&#xa;
                    <mxGeometry relative="1" as="geometry">
                        &#xa;                        &#xa;&#xa;
                        <Array as="points">
                            &#xa;                            &#xa;&#xa;
                            <mxPoint x="210" y="524"/>
                            &#xa;                            &#xa;&#xa;
                            <mxPoint x="210" y="617"/>
                            &#xa;                            &#xa;&#xa;
                        </Array>
                        &#xa;                        &#xa;&#xa;
                    </mxGeometry>
                    &#xa;                    &#xa;&#xa;
                </mxCell>
                &#xa;                &#xa;&#xa;
                <mxCell id="l2xlCw3EaLijWo7BOLk1-31" style="edgeStyle=orthogonalEdgeStyle;rounded=0;jumpStyle=gap;jumpSize=15;orthogonalLoop=1;jettySize=auto;html=1;exitX=1;exitY=0.5;exitDx=0;exitDy=0;entryX=0;entryY=0.5;entryDx=0;entryDy=0;" edge="1" parent="jPrEDTAAYlk9A_LRm5N0-1" source="l2xlCw3EaLijWo7BOLk1-8" target="l2xlCw3EaLijWo7BOLk1-13">
                    &#xa;                    &#xa;&#xa;
                    <mxGeometry relative="1" as="geometry">
                        &#xa;                        &#xa;&#xa;
                        <Array as="points">
                            &#xa;                            &#xa;&#xa;
                            <mxPoint x="200" y="524"/>
                            &#xa;                            &#xa;&#xa;
                            <mxPoint x="200" y="647"/>
                            &#xa;                            &#xa;&#xa;
                        </Array>
                        &#xa;                        &#xa;&#xa;
                    </mxGeometry>
                    &#xa;                    &#xa;&#xa;
                </mxCell>
                &#xa;                &#xa;&#xa;
                <mxCell id="l2xlCw3EaLijWo7BOLk1-32" style="edgeStyle=orthogonalEdgeStyle;rounded=0;jumpStyle=gap;jumpSize=15;orthogonalLoop=1;jettySize=auto;html=1;exitX=1;exitY=0.5;exitDx=0;exitDy=0;entryX=0;entryY=0.5;entryDx=0;entryDy=0;" edge="1" parent="jPrEDTAAYlk9A_LRm5N0-1" source="l2xlCw3EaLijWo7BOLk1-8" target="l2xlCw3EaLijWo7BOLk1-14">
                    &#xa;                    &#xa;&#xa;
                    <mxGeometry relative="1" as="geometry">
                        &#xa;                        &#xa;&#xa;
                        <Array as="points">
                            &#xa;                            &#xa;&#xa;
                            <mxPoint x="190" y="524"/>
                            &#xa;                            &#xa;&#xa;
                            <mxPoint x="190" y="677"/>
                            &#xa;                            &#xa;&#xa;
                        </Array>
                        &#xa;                        &#xa;&#xa;
                    </mxGeometry>
                    &#xa;                    &#xa;&#xa;
                </mxCell>
                &#xa;                &#xa;&#xa;
                <mxCell id="l2xlCw3EaLijWo7BOLk1-8" value="labels.csv" style="rounded=1;whiteSpace=wrap;html=1;" vertex="1" parent="jPrEDTAAYlk9A_LRm5N0-1">
                    &#xa;                    &#xa;&#xa;
                    <mxGeometry x="15.930000000000001" y="513.48" width="150" height="20" as="geometry"/>
                    &#xa;                    &#xa;&#xa;
                </mxCell>
                &#xa;                &#xa;&#xa;
                <mxCell id="l2xlCw3EaLijWo7BOLk1-10" value="&lt;b&gt;Processed MIC&lt;/b&gt;" style="text;html=1;align=center;verticalAlign=middle;resizable=0;points=[];autosize=1;" vertex="1" parent="jPrEDTAAYlk9A_LRm5N0-1">
                    &#xa;                    &#xa;&#xa;
                    <mxGeometry x="40.620000000000054" y="483.98" width="100" height="20" as="geometry"/>
                    &#xa;                    &#xa;&#xa;
                </mxCell>
                &#xa;                &#xa;&#xa;
                <mxCell id="l2xlCw3EaLijWo7BOLk1-33" style="edgeStyle=orthogonalEdgeStyle;rounded=0;jumpStyle=gap;jumpSize=15;orthogonalLoop=1;jettySize=auto;html=1;exitX=1;exitY=0.5;exitDx=0;exitDy=0;entryX=0;entryY=0.5;entryDx=0;entryDy=0;" edge="1" parent="jPrEDTAAYlk9A_LRm5N0-1" source="l2xlCw3EaLijWo7BOLk1-11" target="l2xlCw3EaLijWo7BOLk1-15">
                    &#xa;                    &#xa;&#xa;
                    <mxGeometry relative="1" as="geometry">
                        &#xa;                        &#xa;&#xa;
                        <Array as="points">
                            &#xa;                            &#xa;&#xa;
                            <mxPoint x="350" y="587"/>
                            &#xa;                            &#xa;&#xa;
                            <mxPoint x="350" y="630"/>
                            &#xa;                            &#xa;&#xa;
                        </Array>
                        &#xa;                        &#xa;&#xa;
                    </mxGeometry>
                    &#xa;                    &#xa;&#xa;
                </mxCell>
                &#xa;                &#xa;&#xa;
                <mxCell id="l2xlCw3EaLijWo7BOLk1-11" value="ML model" style="rounded=1;whiteSpace=wrap;html=1;" vertex="1" parent="jPrEDTAAYlk9A_LRm5N0-1">
                    &#xa;                    &#xa;&#xa;
                    <mxGeometry x="260" y="576.75" width="80" height="20" as="geometry"/>
                    &#xa;                    &#xa;&#xa;
                </mxCell>
                &#xa;                &#xa;&#xa;
                <mxCell id="l2xlCw3EaLijWo7BOLk1-35" style="edgeStyle=orthogonalEdgeStyle;rounded=0;jumpStyle=gap;jumpSize=15;orthogonalLoop=1;jettySize=auto;html=1;exitX=1;exitY=0.5;exitDx=0;exitDy=0;entryX=0;entryY=0.5;entryDx=0;entryDy=0;" edge="1" parent="jPrEDTAAYlk9A_LRm5N0-1" source="l2xlCw3EaLijWo7BOLk1-12" target="l2xlCw3EaLijWo7BOLk1-15">
                    &#xa;                    &#xa;&#xa;
                    <mxGeometry relative="1" as="geometry">
                        &#xa;                        &#xa;&#xa;
                        <Array as="points">
                            &#xa;                            &#xa;&#xa;
                            <mxPoint x="350" y="617"/>
                            &#xa;                            &#xa;&#xa;
                            <mxPoint x="350" y="630"/>
                            &#xa;                            &#xa;&#xa;
                        </Array>
                        &#xa;                        &#xa;&#xa;
                    </mxGeometry>
                    &#xa;                    &#xa;&#xa;
                </mxCell>
                &#xa;                &#xa;&#xa;
                <mxCell id="l2xlCw3EaLijWo7BOLk1-12" value="ML model" style="rounded=1;whiteSpace=wrap;html=1;" vertex="1" parent="jPrEDTAAYlk9A_LRm5N0-1">
                    &#xa;                    &#xa;&#xa;
                    <mxGeometry x="260" y="606.75" width="80" height="20" as="geometry"/>
                    &#xa;                    &#xa;&#xa;
                </mxCell>
                &#xa;                &#xa;&#xa;
                <mxCell id="l2xlCw3EaLijWo7BOLk1-36" style="edgeStyle=orthogonalEdgeStyle;rounded=0;jumpStyle=gap;jumpSize=15;orthogonalLoop=1;jettySize=auto;html=1;exitX=1;exitY=0.5;exitDx=0;exitDy=0;entryX=0;entryY=0.5;entryDx=0;entryDy=0;" edge="1" parent="jPrEDTAAYlk9A_LRm5N0-1" source="l2xlCw3EaLijWo7BOLk1-13" target="l2xlCw3EaLijWo7BOLk1-15">
                    &#xa;                    &#xa;&#xa;
                    <mxGeometry relative="1" as="geometry">
                        &#xa;                        &#xa;&#xa;
                        <Array as="points">
                            &#xa;                            &#xa;&#xa;
                            <mxPoint x="350" y="647"/>
                            &#xa;                            &#xa;&#xa;
                            <mxPoint x="350" y="630"/>
                            &#xa;                            &#xa;&#xa;
                        </Array>
                        &#xa;                        &#xa;&#xa;
                    </mxGeometry>
                    &#xa;                    &#xa;&#xa;
                </mxCell>
                &#xa;                &#xa;&#xa;
                <mxCell id="l2xlCw3EaLijWo7BOLk1-13" value="ML model" style="rounded=1;whiteSpace=wrap;html=1;" vertex="1" parent="jPrEDTAAYlk9A_LRm5N0-1">
                    &#xa;                    &#xa;&#xa;
                    <mxGeometry x="260" y="636.75" width="80" height="20" as="geometry"/>
                    &#xa;                    &#xa;&#xa;
                </mxCell>
                &#xa;                &#xa;&#xa;
                <mxCell id="l2xlCw3EaLijWo7BOLk1-37" style="edgeStyle=orthogonalEdgeStyle;rounded=0;jumpStyle=gap;jumpSize=15;orthogonalLoop=1;jettySize=auto;html=1;exitX=1;exitY=0.5;exitDx=0;exitDy=0;entryX=0;entryY=0.5;entryDx=0;entryDy=0;" edge="1" parent="jPrEDTAAYlk9A_LRm5N0-1" source="l2xlCw3EaLijWo7BOLk1-14" target="l2xlCw3EaLijWo7BOLk1-15">
                    &#xa;                    &#xa;&#xa;
                    <mxGeometry relative="1" as="geometry">
                        &#xa;                        &#xa;&#xa;
                        <Array as="points">
                            &#xa;                            &#xa;&#xa;
                            <mxPoint x="350" y="677"/>
                            &#xa;                            &#xa;&#xa;
                            <mxPoint x="350" y="630"/>
                            &#xa;                            &#xa;&#xa;
                        </Array>
                        &#xa;                        &#xa;&#xa;
                    </mxGeometry>
                    &#xa;                    &#xa;&#xa;
                </mxCell>
                &#xa;                &#xa;&#xa;
                <mxCell id="l2xlCw3EaLijWo7BOLk1-14" value="ML model" style="rounded=1;whiteSpace=wrap;html=1;" vertex="1" parent="jPrEDTAAYlk9A_LRm5N0-1">
                    &#xa;                    &#xa;&#xa;
                    <mxGeometry x="260" y="666.75" width="80" height="20" as="geometry"/>
                    &#xa;                    &#xa;&#xa;
                </mxCell>
                &#xa;                &#xa;&#xa;
                <mxCell id="l2xlCw3EaLijWo7BOLk1-50" style="edgeStyle=orthogonalEdgeStyle;rounded=0;jumpStyle=gap;jumpSize=15;orthogonalLoop=1;jettySize=auto;html=1;exitX=1;exitY=0.5;exitDx=0;exitDy=0;entryX=0;entryY=0.5;entryDx=0;entryDy=0;" edge="1" parent="jPrEDTAAYlk9A_LRm5N0-1" source="l2xlCw3EaLijWo7BOLk1-15" target="l2xlCw3EaLijWo7BOLk1-46">
                    &#xa;                    &#xa;&#xa;
                    <mxGeometry relative="1" as="geometry"/>
                    &#xa;                    &#xa;&#xa;
                </mxCell>
                &#xa;                &#xa;&#xa;
                <mxCell id="l2xlCw3EaLijWo7BOLk1-15" value="ML model" style="rounded=1;whiteSpace=wrap;html=1;" vertex="1" parent="jPrEDTAAYlk9A_LRm5N0-1">
                    &#xa;                    &#xa;&#xa;
                    <mxGeometry x="455" y="620" width="79" height="20" as="geometry"/>
                    &#xa;                    &#xa;&#xa;
                </mxCell>
                &#xa;                &#xa;&#xa;
                <mxCell id="l2xlCw3EaLijWo7BOLk1-39" value="&lt;b&gt;ML ensemble model&lt;/b&gt;" style="text;html=1;align=center;verticalAlign=middle;resizable=0;points=[];autosize=1;" vertex="1" parent="jPrEDTAAYlk9A_LRm5N0-1">
                    &#xa;                    &#xa;&#xa;
                    <mxGeometry x="350.00000000000006" y="533.48" width="130" height="20" as="geometry"/>
                    &#xa;                    &#xa;&#xa;
                </mxCell>
                &#xa;                &#xa;&#xa;
                <mxCell id="l2xlCw3EaLijWo7BOLk1-40" value="gene 1 prediction" style="text;html=1;strokeColor=none;fillColor=none;align=center;verticalAlign=middle;whiteSpace=wrap;rounded=0;dashed=1;" vertex="1" parent="jPrEDTAAYlk9A_LRm5N0-1">
                    &#xa;                    &#xa;&#xa;
                    <mxGeometry x="344" y="575" width="110" height="20" as="geometry"/>
                    &#xa;                    &#xa;&#xa;
                </mxCell>
                &#xa;                &#xa;&#xa;
                <mxCell id="l2xlCw3EaLijWo7BOLk1-41" value="gene 2 prediction" style="text;html=1;strokeColor=none;fillColor=none;align=center;verticalAlign=middle;whiteSpace=wrap;rounded=0;dashed=1;" vertex="1" parent="jPrEDTAAYlk9A_LRm5N0-1">
                    &#xa;                    &#xa;&#xa;
                    <mxGeometry x="345" y="604" width="110" height="20" as="geometry"/>
                    &#xa;                    &#xa;&#xa;
                </mxCell>
                &#xa;                &#xa;&#xa;
                <mxCell id="l2xlCw3EaLijWo7BOLk1-42" value="gene 4 prediction" style="text;html=1;strokeColor=none;fillColor=none;align=center;verticalAlign=middle;whiteSpace=wrap;rounded=0;dashed=1;" vertex="1" parent="jPrEDTAAYlk9A_LRm5N0-1">
                    &#xa;                    &#xa;&#xa;
                    <mxGeometry x="343" y="664" width="110" height="20" as="geometry"/>
                    &#xa;                    &#xa;&#xa;
                </mxCell>
                &#xa;                &#xa;&#xa;
                <mxCell id="l2xlCw3EaLijWo7BOLk1-43" value="gene 3 prediction" style="text;html=1;strokeColor=none;fillColor=none;align=center;verticalAlign=middle;whiteSpace=wrap;rounded=0;dashed=1;" vertex="1" parent="jPrEDTAAYlk9A_LRm5N0-1">
                    &#xa;                    &#xa;&#xa;
                    <mxGeometry x="344" y="635" width="110" height="20" as="geometry"/>
                    &#xa;                    &#xa;&#xa;
                </mxCell>
                &#xa;                &#xa;&#xa;
                <mxCell id="l2xlCw3EaLijWo7BOLk1-44" value="" style="endArrow=none;dashed=1;html=1;dashPattern=1 3;strokeWidth=2;" edge="1" parent="jPrEDTAAYlk9A_LRm5N0-1">
                    &#xa;                    &#xa;&#xa;
                    <mxGeometry width="50" height="50" relative="1" as="geometry">
                        &#xa;                        &#xa;&#xa;
                        <mxPoint x="299.7599999999998" y="716.75" as="sourcePoint"/>
                        &#xa;                        &#xa;&#xa;
                        <mxPoint x="299.7599999999998" y="686.75" as="targetPoint"/>
                        &#xa;                        &#xa;&#xa;
                    </mxGeometry>
                    &#xa;                    &#xa;&#xa;
                </mxCell>
                &#xa;                &#xa;&#xa;
                <mxCell id="l2xlCw3EaLijWo7BOLk1-46" value="Isolate MIC prediction" style="rounded=1;whiteSpace=wrap;html=1;" vertex="1" parent="jPrEDTAAYlk9A_LRm5N0-1">
                    &#xa;                    &#xa;&#xa;
                    <mxGeometry x="650" y="620" width="150" height="20" as="geometry"/>
                    &#xa;                    &#xa;&#xa;
                </mxCell>
                &#xa;                &#xa;&#xa;
                <mxCell id="l2xlCw3EaLijWo7BOLk1-52" style="edgeStyle=orthogonalEdgeStyle;rounded=0;jumpStyle=gap;jumpSize=15;orthogonalLoop=1;jettySize=auto;html=1;exitX=0.5;exitY=1;exitDx=0;exitDy=0;entryX=0;entryY=0.5;entryDx=0;entryDy=0;" edge="1" parent="jPrEDTAAYlk9A_LRm5N0-1" source="l2xlCw3EaLijWo7BOLk1-49" target="l2xlCw3EaLijWo7BOLk1-46">
                    &#xa;                    &#xa;&#xa;
                    <mxGeometry relative="1" as="geometry"/>
                    &#xa;                    &#xa;&#xa;
                </mxCell>
                &#xa;                &#xa;&#xa;
                <mxCell id="l2xlCw3EaLijWo7BOLk1-49" value="mic_set.csv" style="rounded=1;whiteSpace=wrap;html=1;" vertex="1" parent="jPrEDTAAYlk9A_LRm5N0-1">
                    &#xa;                    &#xa;&#xa;
                    <mxGeometry x="550" y="546.75" width="79" height="20" as="geometry"/>
                    &#xa;                    &#xa;&#xa;
                </mxCell>
                &#xa;                &#xa;&#xa;
                <mxCell id="l2xlCw3EaLijWo7BOLk1-53" value="decode MIC from preprocessing" style="text;html=1;strokeColor=none;fillColor=none;align=center;verticalAlign=middle;whiteSpace=wrap;rounded=0;dashed=1;" vertex="1" parent="jPrEDTAAYlk9A_LRm5N0-1">
                    &#xa;                    &#xa;&#xa;
                    <mxGeometry x="590" y="586.75" width="110" height="20" as="geometry"/>
                    &#xa;                    &#xa;&#xa;
                </mxCell>
                &#xa;                &#xa;&#xa;
            </root>
            &#xa;            &#xa;&#xa;
        </mxGraphModel>
        &#xa;
    </diagram>
    <diagram id="Uu-NGDIPrtjzAE5zhlvB" name="Class flow chart">
        <mxGraphModel dx="775" dy="617" grid="1" gridSize="10" guides="1" tooltips="1" connect="1" arrows="1" fold="1" page="1" pageScale="1" pageWidth="850" pageHeight="1100" math="0" shadow="0">
            <root>
                <mxCell id="SA7n_jz8WsRqktDGM_Fo-0"/>
                <mxCell id="SA7n_jz8WsRqktDGM_Fo-1" parent="SA7n_jz8WsRqktDGM_Fo-0"/>
                <mxCell id="SA7n_jz8WsRqktDGM_Fo-4" value="" style="edgeStyle=orthogonalEdgeStyle;rounded=0;orthogonalLoop=1;jettySize=auto;html=1;" parent="SA7n_jz8WsRqktDGM_Fo-1" source="SA7n_jz8WsRqktDGM_Fo-2" target="SA7n_jz8WsRqktDGM_Fo-3" edge="1">
                    <mxGeometry relative="1" as="geometry"/>
                </mxCell>
                <mxCell id="SA7n_jz8WsRqktDGM_Fo-2" value="Collect data from JMI pipeline" style="rounded=1;whiteSpace=wrap;html=1;" parent="SA7n_jz8WsRqktDGM_Fo-1" vertex="1">
                    <mxGeometry x="30" y="20" width="120" height="60" as="geometry"/>
                </mxCell>
                <mxCell id="SA7n_jz8WsRqktDGM_Fo-6" value="" style="edgeStyle=orthogonalEdgeStyle;rounded=0;orthogonalLoop=1;jettySize=auto;html=1;" parent="SA7n_jz8WsRqktDGM_Fo-1" source="SA7n_jz8WsRqktDGM_Fo-3" target="SA7n_jz8WsRqktDGM_Fo-5" edge="1">
                    <mxGeometry relative="1" as="geometry"/>
                </mxCell>
                <mxCell id="SA7n_jz8WsRqktDGM_Fo-3" value="Separate MIC values from Amino Acid sequences" style="rounded=1;whiteSpace=wrap;html=1;" parent="SA7n_jz8WsRqktDGM_Fo-1" vertex="1">
                    <mxGeometry x="230" y="20" width="120" height="60" as="geometry"/>
                </mxCell>
                <mxCell id="SA7n_jz8WsRqktDGM_Fo-8" value="" style="edgeStyle=orthogonalEdgeStyle;rounded=0;orthogonalLoop=1;jettySize=auto;html=1;" parent="SA7n_jz8WsRqktDGM_Fo-1" source="SA7n_jz8WsRqktDGM_Fo-5" target="SA7n_jz8WsRqktDGM_Fo-7" edge="1">
                    <mxGeometry relative="1" as="geometry"/>
                </mxCell>
                <mxCell id="SA7n_jz8WsRqktDGM_Fo-5" value="Preprocess MICs and Amino Acid sequences" style="rounded=1;whiteSpace=wrap;html=1;" parent="SA7n_jz8WsRqktDGM_Fo-1" vertex="1">
                    <mxGeometry x="430" y="20" width="120" height="60" as="geometry"/>
                </mxCell>
                <mxCell id="SA7n_jz8WsRqktDGM_Fo-10" value="" style="edgeStyle=orthogonalEdgeStyle;rounded=0;orthogonalLoop=1;jettySize=auto;html=1;" parent="SA7n_jz8WsRqktDGM_Fo-1" source="SA7n_jz8WsRqktDGM_Fo-7" target="SA7n_jz8WsRqktDGM_Fo-9" edge="1">
                    <mxGeometry relative="1" as="geometry">
                        <Array as="points">
                            <mxPoint x="690" y="90"/>
                            <mxPoint x="90" y="90"/>
                        </Array>
                    </mxGeometry>
                </mxCell>
                <mxCell id="SA7n_jz8WsRqktDGM_Fo-7" value="Split data into training dataset (80%) and test dataset (20%)" style="rounded=1;whiteSpace=wrap;html=1;" parent="SA7n_jz8WsRqktDGM_Fo-1" vertex="1">
                    <mxGeometry x="630" y="20" width="120" height="60" as="geometry"/>
                </mxCell>
                <mxCell id="SA7n_jz8WsRqktDGM_Fo-16" value="" style="edgeStyle=orthogonalEdgeStyle;rounded=0;orthogonalLoop=1;jettySize=auto;html=1;" parent="SA7n_jz8WsRqktDGM_Fo-1" source="SA7n_jz8WsRqktDGM_Fo-9" target="SA7n_jz8WsRqktDGM_Fo-15" edge="1">
                    <mxGeometry relative="1" as="geometry">
                        <Array as="points">
                            <mxPoint x="190" y="209"/>
                            <mxPoint x="190" y="130"/>
                        </Array>
                    </mxGeometry>
                </mxCell>
                <mxCell id="SA7n_jz8WsRqktDGM_Fo-17" value="" style="edgeStyle=orthogonalEdgeStyle;rounded=0;orthogonalLoop=1;jettySize=auto;html=1;entryX=0;entryY=0.5;entryDx=0;entryDy=0;" parent="SA7n_jz8WsRqktDGM_Fo-1" source="SA7n_jz8WsRqktDGM_Fo-9" target="SA7n_jz8WsRqktDGM_Fo-20" edge="1">
                    <mxGeometry relative="1" as="geometry">
                        <mxPoint x="230" y="249" as="targetPoint"/>
                        <Array as="points">
                            <mxPoint x="190" y="209"/>
                            <mxPoint x="190" y="290"/>
                        </Array>
                    </mxGeometry>
                </mxCell>
                <mxCell id="SA7n_jz8WsRqktDGM_Fo-18" style="edgeStyle=orthogonalEdgeStyle;rounded=0;orthogonalLoop=1;jettySize=auto;html=1;exitX=1;exitY=0.5;exitDx=0;exitDy=0;entryX=0;entryY=0.5;entryDx=0;entryDy=0;" parent="SA7n_jz8WsRqktDGM_Fo-1" source="SA7n_jz8WsRqktDGM_Fo-9" target="SA7n_jz8WsRqktDGM_Fo-19" edge="1">
                    <mxGeometry relative="1" as="geometry">
                        <mxPoint x="230" y="209" as="targetPoint"/>
                    </mxGeometry>
                </mxCell>
                <mxCell id="SA7n_jz8WsRqktDGM_Fo-9" value="Separate MICs into the 5 separate antibiotics being tested" style="rounded=1;whiteSpace=wrap;html=1;" parent="SA7n_jz8WsRqktDGM_Fo-1" vertex="1">
                    <mxGeometry x="30" y="179" width="120" height="60" as="geometry"/>
                </mxCell>
                <mxCell id="SA7n_jz8WsRqktDGM_Fo-22" value="" style="edgeStyle=orthogonalEdgeStyle;rounded=0;orthogonalLoop=1;jettySize=auto;html=1;" parent="SA7n_jz8WsRqktDGM_Fo-1" source="SA7n_jz8WsRqktDGM_Fo-15" target="SA7n_jz8WsRqktDGM_Fo-21" edge="1">
                    <mxGeometry relative="1" as="geometry"/>
                </mxCell>
                <mxCell id="SA7n_jz8WsRqktDGM_Fo-15" value="Tune Neural Network" style="rounded=1;whiteSpace=wrap;html=1;" parent="SA7n_jz8WsRqktDGM_Fo-1" vertex="1">
                    <mxGeometry x="230" y="100" width="120" height="60" as="geometry"/>
                </mxCell>
                <mxCell id="SA7n_jz8WsRqktDGM_Fo-24" value="" style="edgeStyle=orthogonalEdgeStyle;rounded=0;orthogonalLoop=1;jettySize=auto;html=1;" parent="SA7n_jz8WsRqktDGM_Fo-1" source="SA7n_jz8WsRqktDGM_Fo-19" target="SA7n_jz8WsRqktDGM_Fo-23" edge="1">
                    <mxGeometry relative="1" as="geometry"/>
                </mxCell>
                <mxCell id="SA7n_jz8WsRqktDGM_Fo-19" value="Tune Random Forest" style="rounded=1;whiteSpace=wrap;html=1;" parent="SA7n_jz8WsRqktDGM_Fo-1" vertex="1">
                    <mxGeometry x="230" y="179" width="120" height="60" as="geometry"/>
                </mxCell>
                <mxCell id="SA7n_jz8WsRqktDGM_Fo-26" value="" style="edgeStyle=orthogonalEdgeStyle;rounded=0;orthogonalLoop=1;jettySize=auto;html=1;" parent="SA7n_jz8WsRqktDGM_Fo-1" source="SA7n_jz8WsRqktDGM_Fo-20" target="SA7n_jz8WsRqktDGM_Fo-25" edge="1">
                    <mxGeometry relative="1" as="geometry"/>
                </mxCell>
                <mxCell id="SA7n_jz8WsRqktDGM_Fo-20" value="Tune XGBoost" style="rounded=1;whiteSpace=wrap;html=1;" parent="SA7n_jz8WsRqktDGM_Fo-1" vertex="1">
                    <mxGeometry x="230" y="260" width="120" height="60" as="geometry"/>
                </mxCell>
                <mxCell id="SA7n_jz8WsRqktDGM_Fo-32" value="" style="edgeStyle=orthogonalEdgeStyle;rounded=0;orthogonalLoop=1;jettySize=auto;html=1;" parent="SA7n_jz8WsRqktDGM_Fo-1" source="SA7n_jz8WsRqktDGM_Fo-21" target="SA7n_jz8WsRqktDGM_Fo-31" edge="1">
                    <mxGeometry relative="1" as="geometry"/>
                </mxCell>
                <mxCell id="SA7n_jz8WsRqktDGM_Fo-21" value="Train Neural Network model" style="rounded=1;whiteSpace=wrap;html=1;" parent="SA7n_jz8WsRqktDGM_Fo-1" vertex="1">
                    <mxGeometry x="430" y="100" width="120" height="60" as="geometry"/>
                </mxCell>
                <mxCell id="SA7n_jz8WsRqktDGM_Fo-30" value="" style="edgeStyle=orthogonalEdgeStyle;rounded=0;orthogonalLoop=1;jettySize=auto;html=1;" parent="SA7n_jz8WsRqktDGM_Fo-1" source="SA7n_jz8WsRqktDGM_Fo-23" target="SA7n_jz8WsRqktDGM_Fo-29" edge="1">
                    <mxGeometry relative="1" as="geometry"/>
                </mxCell>
                <mxCell id="SA7n_jz8WsRqktDGM_Fo-23" value="Train Random Forest model" style="rounded=1;whiteSpace=wrap;html=1;" parent="SA7n_jz8WsRqktDGM_Fo-1" vertex="1">
                    <mxGeometry x="430" y="179" width="120" height="60" as="geometry"/>
                </mxCell>
                <mxCell id="SA7n_jz8WsRqktDGM_Fo-28" value="" style="edgeStyle=orthogonalEdgeStyle;rounded=0;orthogonalLoop=1;jettySize=auto;html=1;" parent="SA7n_jz8WsRqktDGM_Fo-1" source="SA7n_jz8WsRqktDGM_Fo-25" target="SA7n_jz8WsRqktDGM_Fo-27" edge="1">
                    <mxGeometry relative="1" as="geometry"/>
                </mxCell>
                <mxCell id="SA7n_jz8WsRqktDGM_Fo-25" value="Train XGBoost model" style="rounded=1;whiteSpace=wrap;html=1;" parent="SA7n_jz8WsRqktDGM_Fo-1" vertex="1">
                    <mxGeometry x="430" y="260" width="120" height="60" as="geometry"/>
                </mxCell>
                <mxCell id="SA7n_jz8WsRqktDGM_Fo-41" style="edgeStyle=orthogonalEdgeStyle;rounded=0;orthogonalLoop=1;jettySize=auto;html=1;exitX=1;exitY=0.5;exitDx=0;exitDy=0;entryX=0.5;entryY=0;entryDx=0;entryDy=0;" parent="SA7n_jz8WsRqktDGM_Fo-1" source="SA7n_jz8WsRqktDGM_Fo-27" target="SA7n_jz8WsRqktDGM_Fo-33" edge="1">
                    <mxGeometry relative="1" as="geometry">
                        <Array as="points">
                            <mxPoint x="770" y="290"/>
                            <mxPoint x="770" y="330"/>
                            <mxPoint x="90" y="330"/>
                        </Array>
                    </mxGeometry>
                </mxCell>
                <mxCell id="SA7n_jz8WsRqktDGM_Fo-27" value="Test XGBoost model" style="rounded=1;whiteSpace=wrap;html=1;" parent="SA7n_jz8WsRqktDGM_Fo-1" vertex="1">
                    <mxGeometry x="630" y="260" width="120" height="60" as="geometry"/>
                </mxCell>
                <mxCell id="SA7n_jz8WsRqktDGM_Fo-42" style="edgeStyle=orthogonalEdgeStyle;rounded=0;orthogonalLoop=1;jettySize=auto;html=1;exitX=1;exitY=0.5;exitDx=0;exitDy=0;entryX=0.5;entryY=0;entryDx=0;entryDy=0;" parent="SA7n_jz8WsRqktDGM_Fo-1" source="SA7n_jz8WsRqktDGM_Fo-29" target="SA7n_jz8WsRqktDGM_Fo-33" edge="1">
                    <mxGeometry relative="1" as="geometry">
                        <mxPoint x="150" y="310" as="targetPoint"/>
                        <Array as="points">
                            <mxPoint x="770" y="209"/>
                            <mxPoint x="770" y="330"/>
                            <mxPoint x="90" y="330"/>
                        </Array>
                    </mxGeometry>
                </mxCell>
                <mxCell id="SA7n_jz8WsRqktDGM_Fo-29" value="Test Random Forest model" style="rounded=1;whiteSpace=wrap;html=1;" parent="SA7n_jz8WsRqktDGM_Fo-1" vertex="1">
                    <mxGeometry x="630" y="179" width="120" height="60" as="geometry"/>
                </mxCell>
                <mxCell id="SA7n_jz8WsRqktDGM_Fo-43" style="edgeStyle=orthogonalEdgeStyle;rounded=0;orthogonalLoop=1;jettySize=auto;html=1;exitX=1;exitY=0.5;exitDx=0;exitDy=0;entryX=0.5;entryY=0;entryDx=0;entryDy=0;" parent="SA7n_jz8WsRqktDGM_Fo-1" source="SA7n_jz8WsRqktDGM_Fo-31" target="SA7n_jz8WsRqktDGM_Fo-33" edge="1">
                    <mxGeometry relative="1" as="geometry">
                        <Array as="points">
                            <mxPoint x="770" y="130"/>
                            <mxPoint x="770" y="330"/>
                            <mxPoint x="90" y="330"/>
                        </Array>
                    </mxGeometry>
                </mxCell>
                <mxCell id="SA7n_jz8WsRqktDGM_Fo-31" value="Test Neural Network model" style="rounded=1;whiteSpace=wrap;html=1;" parent="SA7n_jz8WsRqktDGM_Fo-1" vertex="1">
                    <mxGeometry x="630" y="100" width="120" height="60" as="geometry"/>
                </mxCell>
                <mxCell id="SA7n_jz8WsRqktDGM_Fo-36" value="" style="edgeStyle=orthogonalEdgeStyle;rounded=0;orthogonalLoop=1;jettySize=auto;html=1;" parent="SA7n_jz8WsRqktDGM_Fo-1" source="SA7n_jz8WsRqktDGM_Fo-33" target="SA7n_jz8WsRqktDGM_Fo-35" edge="1">
                    <mxGeometry relative="1" as="geometry"/>
                </mxCell>
                <mxCell id="SA7n_jz8WsRqktDGM_Fo-33" value="Collect results from tests for single antibiotic" style="rounded=1;whiteSpace=wrap;html=1;" parent="SA7n_jz8WsRqktDGM_Fo-1" vertex="1">
                    <mxGeometry x="30" y="350" width="120" height="60" as="geometry"/>
                </mxCell>
                <mxCell id="SA7n_jz8WsRqktDGM_Fo-34" value="For each antibiotic..." style="text;html=1;strokeColor=none;fillColor=none;align=center;verticalAlign=middle;whiteSpace=wrap;rounded=0;" parent="SA7n_jz8WsRqktDGM_Fo-1" vertex="1">
                    <mxGeometry x="140" y="150" width="40" height="20" as="geometry"/>
                </mxCell>
                <mxCell id="SA7n_jz8WsRqktDGM_Fo-38" value="" style="edgeStyle=orthogonalEdgeStyle;rounded=0;orthogonalLoop=1;jettySize=auto;html=1;entryX=0;entryY=0.5;entryDx=0;entryDy=0;" parent="SA7n_jz8WsRqktDGM_Fo-1" source="SA7n_jz8WsRqktDGM_Fo-35" target="SA7n_jz8WsRqktDGM_Fo-39" edge="1">
                    <mxGeometry relative="1" as="geometry">
                        <mxPoint x="430" y="460" as="targetPoint"/>
                    </mxGeometry>
                </mxCell>
                <mxCell id="SA7n_jz8WsRqktDGM_Fo-40" style="edgeStyle=orthogonalEdgeStyle;rounded=0;orthogonalLoop=1;jettySize=auto;html=1;exitX=1;exitY=0.5;exitDx=0;exitDy=0;entryX=0;entryY=0.5;entryDx=0;entryDy=0;" parent="SA7n_jz8WsRqktDGM_Fo-1" source="SA7n_jz8WsRqktDGM_Fo-35" target="SA7n_jz8WsRqktDGM_Fo-37" edge="1">
                    <mxGeometry relative="1" as="geometry"/>
                </mxCell>
                <mxCell id="SA7n_jz8WsRqktDGM_Fo-35" value="Combine all results from all 5 antibiotics" style="rounded=1;whiteSpace=wrap;html=1;" parent="SA7n_jz8WsRqktDGM_Fo-1" vertex="1">
                    <mxGeometry x="230" y="350" width="120" height="60" as="geometry"/>
                </mxCell>
                <mxCell id="SA7n_jz8WsRqktDGM_Fo-37" value="Create ROC curve plot" style="rounded=1;whiteSpace=wrap;html=1;" parent="SA7n_jz8WsRqktDGM_Fo-1" vertex="1">
                    <mxGeometry x="430" y="350" width="120" height="60" as="geometry"/>
                </mxCell>
                <mxCell id="SA7n_jz8WsRqktDGM_Fo-39" value="Create F1 score plot" style="rounded=1;whiteSpace=wrap;html=1;" parent="SA7n_jz8WsRqktDGM_Fo-1" vertex="1">
                    <mxGeometry x="430" y="430" width="120" height="60" as="geometry"/>
                </mxCell>
            </root>
        </mxGraphModel>
    </diagram>
    <diagram name="Research flow chart" id="qbFfIdvFZI3tblwTnUoe">
        <mxGraphModel dx="775" dy="617" grid="1" gridSize="10" guides="1" tooltips="1" connect="1" arrows="1" fold="1" page="1" pageScale="1" pageWidth="850" pageHeight="1100" math="0" shadow="0">
            <root>
                <mxCell id="iCDThZNGumRVyoVaXw69-0"/>
                <mxCell id="iCDThZNGumRVyoVaXw69-1" parent="iCDThZNGumRVyoVaXw69-0"/>
                <mxCell id="iCDThZNGumRVyoVaXw69-2" value="" style="edgeStyle=orthogonalEdgeStyle;rounded=0;orthogonalLoop=1;jettySize=auto;html=1;" edge="1" parent="iCDThZNGumRVyoVaXw69-1" source="iCDThZNGumRVyoVaXw69-3" target="iCDThZNGumRVyoVaXw69-5">
                    <mxGeometry relative="1" as="geometry"/>
                </mxCell>
                <mxCell id="iCDThZNGumRVyoVaXw69-3" value="Collect data from JMI pipeline" style="rounded=1;whiteSpace=wrap;html=1;" vertex="1" parent="iCDThZNGumRVyoVaXw69-1">
                    <mxGeometry x="30" y="20" width="120" height="60" as="geometry"/>
                </mxCell>
                <mxCell id="iCDThZNGumRVyoVaXw69-4" value="" style="edgeStyle=orthogonalEdgeStyle;rounded=0;orthogonalLoop=1;jettySize=auto;html=1;" edge="1" parent="iCDThZNGumRVyoVaXw69-1" source="iCDThZNGumRVyoVaXw69-5" target="iCDThZNGumRVyoVaXw69-7">
                    <mxGeometry relative="1" as="geometry"/>
                </mxCell>
                <mxCell id="iCDThZNGumRVyoVaXw69-5" value="Separate MIC values from Amino Acid sequences" style="rounded=1;whiteSpace=wrap;html=1;" vertex="1" parent="iCDThZNGumRVyoVaXw69-1">
                    <mxGeometry x="230" y="20" width="120" height="60" as="geometry"/>
                </mxCell>
                <mxCell id="iCDThZNGumRVyoVaXw69-6" value="" style="edgeStyle=orthogonalEdgeStyle;rounded=0;orthogonalLoop=1;jettySize=auto;html=1;" edge="1" parent="iCDThZNGumRVyoVaXw69-1" source="iCDThZNGumRVyoVaXw69-7" target="iCDThZNGumRVyoVaXw69-9">
                    <mxGeometry relative="1" as="geometry"/>
                </mxCell>
                <mxCell id="iCDThZNGumRVyoVaXw69-7" value="Preprocess MICs and Amino Acid sequences" style="rounded=1;whiteSpace=wrap;html=1;" vertex="1" parent="iCDThZNGumRVyoVaXw69-1">
                    <mxGeometry x="430" y="20" width="120" height="60" as="geometry"/>
                </mxCell>
                <mxCell id="iCDThZNGumRVyoVaXw69-8" value="" style="edgeStyle=orthogonalEdgeStyle;rounded=0;orthogonalLoop=1;jettySize=auto;html=1;" edge="1" parent="iCDThZNGumRVyoVaXw69-1" source="iCDThZNGumRVyoVaXw69-9" target="iCDThZNGumRVyoVaXw69-13">
                    <mxGeometry relative="1" as="geometry">
                        <Array as="points">
                            <mxPoint x="690" y="90"/>
                            <mxPoint x="90" y="90"/>
                        </Array>
                    </mxGeometry>
                </mxCell>
                <mxCell id="iCDThZNGumRVyoVaXw69-9" value="Split data into training dataset (80%) and test dataset (20%)" style="rounded=1;whiteSpace=wrap;html=1;" vertex="1" parent="iCDThZNGumRVyoVaXw69-1">
                    <mxGeometry x="630" y="20" width="120" height="60" as="geometry"/>
                </mxCell>
                <mxCell id="iCDThZNGumRVyoVaXw69-10" value="" style="edgeStyle=orthogonalEdgeStyle;rounded=0;orthogonalLoop=1;jettySize=auto;html=1;" edge="1" parent="iCDThZNGumRVyoVaXw69-1" source="iCDThZNGumRVyoVaXw69-13" target="iCDThZNGumRVyoVaXw69-15">
                    <mxGeometry relative="1" as="geometry">
                        <Array as="points">
                            <mxPoint x="190" y="209"/>
                            <mxPoint x="190" y="130"/>
                        </Array>
                    </mxGeometry>
                </mxCell>
                <mxCell id="iCDThZNGumRVyoVaXw69-11" value="" style="edgeStyle=orthogonalEdgeStyle;rounded=0;orthogonalLoop=1;jettySize=auto;html=1;entryX=0;entryY=0.5;entryDx=0;entryDy=0;" edge="1" parent="iCDThZNGumRVyoVaXw69-1" source="iCDThZNGumRVyoVaXw69-13" target="iCDThZNGumRVyoVaXw69-19">
                    <mxGeometry relative="1" as="geometry">
                        <mxPoint x="230" y="249" as="targetPoint"/>
                        <Array as="points">
                            <mxPoint x="190" y="209"/>
                            <mxPoint x="190" y="290"/>
                        </Array>
                    </mxGeometry>
                </mxCell>
                <mxCell id="iCDThZNGumRVyoVaXw69-12" style="edgeStyle=orthogonalEdgeStyle;rounded=0;orthogonalLoop=1;jettySize=auto;html=1;exitX=1;exitY=0.5;exitDx=0;exitDy=0;entryX=0;entryY=0.5;entryDx=0;entryDy=0;" edge="1" parent="iCDThZNGumRVyoVaXw69-1" source="iCDThZNGumRVyoVaXw69-13" target="iCDThZNGumRVyoVaXw69-17">
                    <mxGeometry relative="1" as="geometry">
                        <mxPoint x="230" y="209" as="targetPoint"/>
                    </mxGeometry>
                </mxCell>
                <mxCell id="iCDThZNGumRVyoVaXw69-13" value="Separate MICs into the 5 separate antibiotics being tested" style="rounded=1;whiteSpace=wrap;html=1;" vertex="1" parent="iCDThZNGumRVyoVaXw69-1">
                    <mxGeometry x="30" y="179" width="120" height="60" as="geometry"/>
                </mxCell>
                <mxCell id="iCDThZNGumRVyoVaXw69-14" value="" style="edgeStyle=orthogonalEdgeStyle;rounded=0;orthogonalLoop=1;jettySize=auto;html=1;" edge="1" parent="iCDThZNGumRVyoVaXw69-1" source="iCDThZNGumRVyoVaXw69-15" target="iCDThZNGumRVyoVaXw69-21">
                    <mxGeometry relative="1" as="geometry"/>
                </mxCell>
                <mxCell id="iCDThZNGumRVyoVaXw69-15" value="Tune Dense NN" style="rounded=1;whiteSpace=wrap;html=1;" vertex="1" parent="iCDThZNGumRVyoVaXw69-1">
                    <mxGeometry x="230" y="100" width="120" height="60" as="geometry"/>
                </mxCell>
                <mxCell id="iCDThZNGumRVyoVaXw69-16" value="" style="edgeStyle=orthogonalEdgeStyle;rounded=0;orthogonalLoop=1;jettySize=auto;html=1;" edge="1" parent="iCDThZNGumRVyoVaXw69-1" source="iCDThZNGumRVyoVaXw69-17" target="iCDThZNGumRVyoVaXw69-23">
                    <mxGeometry relative="1" as="geometry"/>
                </mxCell>
                <mxCell id="iCDThZNGumRVyoVaXw69-17" value="Tune RNN" style="rounded=1;whiteSpace=wrap;html=1;" vertex="1" parent="iCDThZNGumRVyoVaXw69-1">
                    <mxGeometry x="230" y="179" width="120" height="60" as="geometry"/>
                </mxCell>
                <mxCell id="iCDThZNGumRVyoVaXw69-18" value="" style="edgeStyle=orthogonalEdgeStyle;rounded=0;orthogonalLoop=1;jettySize=auto;html=1;" edge="1" parent="iCDThZNGumRVyoVaXw69-1" source="iCDThZNGumRVyoVaXw69-19" target="iCDThZNGumRVyoVaXw69-25">
                    <mxGeometry relative="1" as="geometry"/>
                </mxCell>
                <mxCell id="iCDThZNGumRVyoVaXw69-19" value="Tune XGBoost" style="rounded=1;whiteSpace=wrap;html=1;" vertex="1" parent="iCDThZNGumRVyoVaXw69-1">
                    <mxGeometry x="230" y="260" width="120" height="60" as="geometry"/>
                </mxCell>
                <mxCell id="iCDThZNGumRVyoVaXw69-20" value="" style="edgeStyle=orthogonalEdgeStyle;rounded=0;orthogonalLoop=1;jettySize=auto;html=1;" edge="1" parent="iCDThZNGumRVyoVaXw69-1" source="iCDThZNGumRVyoVaXw69-21" target="iCDThZNGumRVyoVaXw69-31">
                    <mxGeometry relative="1" as="geometry"/>
                </mxCell>
                <mxCell id="iCDThZNGumRVyoVaXw69-21" value="Train Dense NN model" style="rounded=1;whiteSpace=wrap;html=1;" vertex="1" parent="iCDThZNGumRVyoVaXw69-1">
                    <mxGeometry x="430" y="100" width="120" height="60" as="geometry"/>
                </mxCell>
                <mxCell id="iCDThZNGumRVyoVaXw69-22" value="" style="edgeStyle=orthogonalEdgeStyle;rounded=0;orthogonalLoop=1;jettySize=auto;html=1;" edge="1" parent="iCDThZNGumRVyoVaXw69-1" source="iCDThZNGumRVyoVaXw69-23" target="iCDThZNGumRVyoVaXw69-29">
                    <mxGeometry relative="1" as="geometry"/>
                </mxCell>
                <mxCell id="iCDThZNGumRVyoVaXw69-23" value="Train RNN model" style="rounded=1;whiteSpace=wrap;html=1;" vertex="1" parent="iCDThZNGumRVyoVaXw69-1">
                    <mxGeometry x="430" y="179" width="120" height="60" as="geometry"/>
                </mxCell>
                <mxCell id="iCDThZNGumRVyoVaXw69-24" value="" style="edgeStyle=orthogonalEdgeStyle;rounded=0;orthogonalLoop=1;jettySize=auto;html=1;" edge="1" parent="iCDThZNGumRVyoVaXw69-1" source="iCDThZNGumRVyoVaXw69-25" target="iCDThZNGumRVyoVaXw69-27">
                    <mxGeometry relative="1" as="geometry"/>
                </mxCell>
                <mxCell id="iCDThZNGumRVyoVaXw69-25" value="Train XGBoost model" style="rounded=1;whiteSpace=wrap;html=1;" vertex="1" parent="iCDThZNGumRVyoVaXw69-1">
                    <mxGeometry x="430" y="260" width="120" height="60" as="geometry"/>
                </mxCell>
                <mxCell id="iCDThZNGumRVyoVaXw69-26" style="edgeStyle=orthogonalEdgeStyle;rounded=0;orthogonalLoop=1;jettySize=auto;html=1;exitX=1;exitY=0.5;exitDx=0;exitDy=0;entryX=0.5;entryY=0;entryDx=0;entryDy=0;" edge="1" parent="iCDThZNGumRVyoVaXw69-1" source="iCDThZNGumRVyoVaXw69-27" target="iCDThZNGumRVyoVaXw69-33">
                    <mxGeometry relative="1" as="geometry">
                        <Array as="points">
                            <mxPoint x="770" y="290"/>
                            <mxPoint x="770" y="330"/>
                            <mxPoint x="90" y="330"/>
                        </Array>
                    </mxGeometry>
                </mxCell>
                <mxCell id="iCDThZNGumRVyoVaXw69-27" value="Test XGBoost model" style="rounded=1;whiteSpace=wrap;html=1;" vertex="1" parent="iCDThZNGumRVyoVaXw69-1">
                    <mxGeometry x="630" y="260" width="120" height="60" as="geometry"/>
                </mxCell>
                <mxCell id="iCDThZNGumRVyoVaXw69-28" style="edgeStyle=orthogonalEdgeStyle;rounded=0;orthogonalLoop=1;jettySize=auto;html=1;exitX=1;exitY=0.5;exitDx=0;exitDy=0;entryX=0.5;entryY=0;entryDx=0;entryDy=0;" edge="1" parent="iCDThZNGumRVyoVaXw69-1" source="iCDThZNGumRVyoVaXw69-29" target="iCDThZNGumRVyoVaXw69-33">
                    <mxGeometry relative="1" as="geometry">
                        <mxPoint x="150" y="310" as="targetPoint"/>
                        <Array as="points">
                            <mxPoint x="770" y="209"/>
                            <mxPoint x="770" y="330"/>
                            <mxPoint x="90" y="330"/>
                        </Array>
                    </mxGeometry>
                </mxCell>
                <mxCell id="iCDThZNGumRVyoVaXw69-29" value="Test RNN model" style="rounded=1;whiteSpace=wrap;html=1;" vertex="1" parent="iCDThZNGumRVyoVaXw69-1">
                    <mxGeometry x="630" y="179" width="120" height="60" as="geometry"/>
                </mxCell>
                <mxCell id="iCDThZNGumRVyoVaXw69-30" style="edgeStyle=orthogonalEdgeStyle;rounded=0;orthogonalLoop=1;jettySize=auto;html=1;exitX=1;exitY=0.5;exitDx=0;exitDy=0;entryX=0.5;entryY=0;entryDx=0;entryDy=0;" edge="1" parent="iCDThZNGumRVyoVaXw69-1" source="iCDThZNGumRVyoVaXw69-31" target="iCDThZNGumRVyoVaXw69-33">
                    <mxGeometry relative="1" as="geometry">
                        <Array as="points">
                            <mxPoint x="770" y="130"/>
                            <mxPoint x="770" y="330"/>
                            <mxPoint x="90" y="330"/>
                        </Array>
                    </mxGeometry>
                </mxCell>
                <mxCell id="iCDThZNGumRVyoVaXw69-31" value="Test Dense NN&amp;nbsp;model" style="rounded=1;whiteSpace=wrap;html=1;" vertex="1" parent="iCDThZNGumRVyoVaXw69-1">
                    <mxGeometry x="630" y="100" width="120" height="60" as="geometry"/>
                </mxCell>
                <mxCell id="iCDThZNGumRVyoVaXw69-32" value="" style="edgeStyle=orthogonalEdgeStyle;rounded=0;orthogonalLoop=1;jettySize=auto;html=1;" edge="1" parent="iCDThZNGumRVyoVaXw69-1" source="iCDThZNGumRVyoVaXw69-33" target="iCDThZNGumRVyoVaXw69-37">
                    <mxGeometry relative="1" as="geometry"/>
                </mxCell>
                <mxCell id="iCDThZNGumRVyoVaXw69-33" value="Collect results from tests for single antibiotic" style="rounded=1;whiteSpace=wrap;html=1;" vertex="1" parent="iCDThZNGumRVyoVaXw69-1">
                    <mxGeometry x="30" y="350" width="120" height="60" as="geometry"/>
                </mxCell>
                <mxCell id="iCDThZNGumRVyoVaXw69-34" value="For each antibiotic..." style="text;html=1;strokeColor=none;fillColor=none;align=center;verticalAlign=middle;whiteSpace=wrap;rounded=0;" vertex="1" parent="iCDThZNGumRVyoVaXw69-1">
                    <mxGeometry x="140" y="150" width="40" height="20" as="geometry"/>
                </mxCell>
                <mxCell id="iCDThZNGumRVyoVaXw69-35" value="" style="edgeStyle=orthogonalEdgeStyle;rounded=0;orthogonalLoop=1;jettySize=auto;html=1;entryX=0;entryY=0.5;entryDx=0;entryDy=0;" edge="1" parent="iCDThZNGumRVyoVaXw69-1" source="iCDThZNGumRVyoVaXw69-37" target="iCDThZNGumRVyoVaXw69-39">
                    <mxGeometry relative="1" as="geometry">
                        <mxPoint x="430" y="460" as="targetPoint"/>
                    </mxGeometry>
                </mxCell>
                <mxCell id="iCDThZNGumRVyoVaXw69-36" style="edgeStyle=orthogonalEdgeStyle;rounded=0;orthogonalLoop=1;jettySize=auto;html=1;exitX=1;exitY=0.5;exitDx=0;exitDy=0;entryX=0;entryY=0.5;entryDx=0;entryDy=0;" edge="1" parent="iCDThZNGumRVyoVaXw69-1" source="iCDThZNGumRVyoVaXw69-37" target="iCDThZNGumRVyoVaXw69-38">
                    <mxGeometry relative="1" as="geometry"/>
                </mxCell>
                <mxCell id="iCDThZNGumRVyoVaXw69-37" value="Combine all results from all 5 antibiotics" style="rounded=1;whiteSpace=wrap;html=1;" vertex="1" parent="iCDThZNGumRVyoVaXw69-1">
                    <mxGeometry x="230" y="350" width="120" height="60" as="geometry"/>
                </mxCell>
                <mxCell id="iCDThZNGumRVyoVaXw69-38" value="Create ROC curve plot" style="rounded=1;whiteSpace=wrap;html=1;" vertex="1" parent="iCDThZNGumRVyoVaXw69-1">
                    <mxGeometry x="430" y="350" width="120" height="60" as="geometry"/>
                </mxCell>
                <mxCell id="iCDThZNGumRVyoVaXw69-39" value="Create F1 score plot" style="rounded=1;whiteSpace=wrap;html=1;" vertex="1" parent="iCDThZNGumRVyoVaXw69-1">
                    <mxGeometry x="430" y="430" width="120" height="60" as="geometry"/>
                </mxCell>
            </root>
        </mxGraphModel>
    </diagram>
    <diagram id="JTLlf5WYf4l3mtGkm_yi" name="MIC processing">
        &#xa;
        <mxGraphModel dx="422" dy="247" grid="1" gridSize="10" guides="1" tooltips="1" connect="1" arrows="1" fold="1" page="1" pageScale="1" pageWidth="850" pageHeight="1100" math="0" shadow="0">
            &#xa;
            <root>
                &#xa;
                <mxCell id="S1ivn6MxJ76b2SOeNbmV-0"/>
                &#xa;
                <mxCell id="S1ivn6MxJ76b2SOeNbmV-1" parent="S1ivn6MxJ76b2SOeNbmV-0"/>
                &#xa;
                <mxCell id="S1ivn6MxJ76b2SOeNbmV-2" value="Antibiotic 1" style="text;html=1;align=center;verticalAlign=middle;whiteSpace=wrap;rounded=0;fontColor=#0000FF;fontStyle=1" vertex="1" parent="S1ivn6MxJ76b2SOeNbmV-1">
                    &#xa;
                    <mxGeometry x="40" y="40" width="40" height="20" as="geometry"/>
                    &#xa;
                </mxCell>
                &#xa;
                <mxCell id="S1ivn6MxJ76b2SOeNbmV-3" value="Antibiotic 2" style="text;html=1;align=center;verticalAlign=middle;whiteSpace=wrap;rounded=0;fontColor=#009900;fontStyle=1" vertex="1" parent="S1ivn6MxJ76b2SOeNbmV-1">
                    &#xa;
                    <mxGeometry x="100" y="40" width="40" height="20" as="geometry"/>
                    &#xa;
                </mxCell>
                &#xa;
                <mxCell id="S1ivn6MxJ76b2SOeNbmV-4" value="Antibiotic 3" style="text;html=1;align=center;verticalAlign=middle;whiteSpace=wrap;rounded=0;fontColor=#FF0000;fontStyle=1" vertex="1" parent="S1ivn6MxJ76b2SOeNbmV-1">
                    &#xa;
                    <mxGeometry x="160" y="40" width="40" height="20" as="geometry"/>
                    &#xa;
                </mxCell>
                &#xa;
                <mxCell id="S1ivn6MxJ76b2SOeNbmV-5" value="0.01" style="text;html=1;align=center;verticalAlign=middle;whiteSpace=wrap;rounded=0;fontColor=#0000FF;" vertex="1" parent="S1ivn6MxJ76b2SOeNbmV-1">
                    &#xa;
                    <mxGeometry x="40" y="70" width="40" height="20" as="geometry"/>
                    &#xa;
                </mxCell>
                &#xa;
                <mxCell id="S1ivn6MxJ76b2SOeNbmV-6" value="2" style="text;html=1;align=center;verticalAlign=middle;whiteSpace=wrap;rounded=0;fontColor=#0000FF;" vertex="1" parent="S1ivn6MxJ76b2SOeNbmV-1">
                    &#xa;
                    <mxGeometry x="40" y="90" width="40" height="20" as="geometry"/>
                    &#xa;
                </mxCell>
                &#xa;
                <mxCell id="S1ivn6MxJ76b2SOeNbmV-7" value="0.5" style="text;html=1;align=center;verticalAlign=middle;whiteSpace=wrap;rounded=0;fontColor=#0000FF;" vertex="1" parent="S1ivn6MxJ76b2SOeNbmV-1">
                    &#xa;
                    <mxGeometry x="40" y="110" width="40" height="20" as="geometry"/>
                    &#xa;
                </mxCell>
                &#xa;
                <mxCell id="S1ivn6MxJ76b2SOeNbmV-8" value="0.25" style="text;html=1;align=center;verticalAlign=middle;whiteSpace=wrap;rounded=0;fontColor=#0000FF;" vertex="1" parent="S1ivn6MxJ76b2SOeNbmV-1">
                    &#xa;
                    <mxGeometry x="40" y="130" width="40" height="20" as="geometry"/>
                    &#xa;
                </mxCell>
                &#xa;
                <mxCell id="S1ivn6MxJ76b2SOeNbmV-9" value="0.5" style="text;html=1;align=center;verticalAlign=middle;whiteSpace=wrap;rounded=0;fontColor=#0000FF;" vertex="1" parent="S1ivn6MxJ76b2SOeNbmV-1">
                    &#xa;
                    <mxGeometry x="40" y="150" width="40" height="20" as="geometry"/>
                    &#xa;
                </mxCell>
                &#xa;
                <mxCell id="S1ivn6MxJ76b2SOeNbmV-11" value="4" style="text;html=1;align=center;verticalAlign=middle;whiteSpace=wrap;rounded=0;fontColor=#009900;" vertex="1" parent="S1ivn6MxJ76b2SOeNbmV-1">
                    &#xa;
                    <mxGeometry x="100" y="70" width="40" height="20" as="geometry"/>
                    &#xa;
                </mxCell>
                &#xa;
                <mxCell id="S1ivn6MxJ76b2SOeNbmV-12" value="1" style="text;html=1;align=center;verticalAlign=middle;whiteSpace=wrap;rounded=0;fontColor=#009900;" vertex="1" parent="S1ivn6MxJ76b2SOeNbmV-1">
                    &#xa;
                    <mxGeometry x="100" y="90" width="40" height="20" as="geometry"/>
                    &#xa;
                </mxCell>
                &#xa;
                <mxCell id="S1ivn6MxJ76b2SOeNbmV-13" value="16" style="text;html=1;align=center;verticalAlign=middle;whiteSpace=wrap;rounded=0;fontColor=#009900;" vertex="1" parent="S1ivn6MxJ76b2SOeNbmV-1">
                    &#xa;
                    <mxGeometry x="100" y="110" width="40" height="20" as="geometry"/>
                    &#xa;
                </mxCell>
                &#xa;
                <mxCell id="S1ivn6MxJ76b2SOeNbmV-14" value="8" style="text;html=1;align=center;verticalAlign=middle;whiteSpace=wrap;rounded=0;fontColor=#009900;" vertex="1" parent="S1ivn6MxJ76b2SOeNbmV-1">
                    &#xa;
                    <mxGeometry x="100" y="130" width="40" height="20" as="geometry"/>
                    &#xa;
                </mxCell>
                &#xa;
                <mxCell id="S1ivn6MxJ76b2SOeNbmV-15" value="4" style="text;html=1;align=center;verticalAlign=middle;whiteSpace=wrap;rounded=0;fontColor=#009900;" vertex="1" parent="S1ivn6MxJ76b2SOeNbmV-1">
                    &#xa;
                    <mxGeometry x="100" y="150" width="40" height="20" as="geometry"/>
                    &#xa;
                </mxCell>
                &#xa;
                <mxCell id="S1ivn6MxJ76b2SOeNbmV-16" value="0.25" style="text;html=1;align=center;verticalAlign=middle;whiteSpace=wrap;rounded=0;fontColor=#FF0000;" vertex="1" parent="S1ivn6MxJ76b2SOeNbmV-1">
                    &#xa;
                    <mxGeometry x="160" y="70" width="40" height="20" as="geometry"/>
                    &#xa;
                </mxCell>
                &#xa;
                <mxCell id="S1ivn6MxJ76b2SOeNbmV-17" value="0.5" style="text;html=1;align=center;verticalAlign=middle;whiteSpace=wrap;rounded=0;fontColor=#FF0000;" vertex="1" parent="S1ivn6MxJ76b2SOeNbmV-1">
                    &#xa;
                    <mxGeometry x="160" y="90" width="40" height="20" as="geometry"/>
                    &#xa;
                </mxCell>
                &#xa;
                <mxCell id="S1ivn6MxJ76b2SOeNbmV-18" value="0.5" style="text;html=1;align=center;verticalAlign=middle;whiteSpace=wrap;rounded=0;fontColor=#FF0000;" vertex="1" parent="S1ivn6MxJ76b2SOeNbmV-1">
                    &#xa;
                    <mxGeometry x="160" y="110" width="40" height="20" as="geometry"/>
                    &#xa;
                </mxCell>
                &#xa;
                <mxCell id="S1ivn6MxJ76b2SOeNbmV-20" value="0.25" style="text;html=1;align=center;verticalAlign=middle;whiteSpace=wrap;rounded=0;fontColor=#FF0000;" vertex="1" parent="S1ivn6MxJ76b2SOeNbmV-1">
                    &#xa;
                    <mxGeometry x="160" y="150" width="40" height="20" as="geometry"/>
                    &#xa;
                </mxCell>
                &#xa;
                <mxCell id="S1ivn6MxJ76b2SOeNbmV-21" value="Antibiotic 1" style="text;html=1;align=center;verticalAlign=middle;whiteSpace=wrap;rounded=0;fontColor=#0000FF;fontStyle=1" vertex="1" parent="S1ivn6MxJ76b2SOeNbmV-1">
                    &#xa;
                    <mxGeometry x="450" y="40" width="40" height="20" as="geometry"/>
                    &#xa;
                </mxCell>
                &#xa;
                <mxCell id="S1ivn6MxJ76b2SOeNbmV-22" value="Antibiotic 2" style="text;html=1;align=center;verticalAlign=middle;whiteSpace=wrap;rounded=0;fontColor=#009900;fontStyle=1" vertex="1" parent="S1ivn6MxJ76b2SOeNbmV-1">
                    &#xa;
                    <mxGeometry x="510" y="40" width="40" height="20" as="geometry"/>
                    &#xa;
                </mxCell>
                &#xa;
                <mxCell id="S1ivn6MxJ76b2SOeNbmV-23" value="Antibiotic 3" style="text;html=1;align=center;verticalAlign=middle;whiteSpace=wrap;rounded=0;fontColor=#FF0000;fontStyle=1" vertex="1" parent="S1ivn6MxJ76b2SOeNbmV-1">
                    &#xa;
                    <mxGeometry x="570" y="40" width="40" height="20" as="geometry"/>
                    &#xa;
                </mxCell>
                &#xa;
                <mxCell id="S1ivn6MxJ76b2SOeNbmV-24" value="2" style="text;html=1;align=center;verticalAlign=middle;whiteSpace=wrap;rounded=0;fontColor=#0000FF;" vertex="1" parent="S1ivn6MxJ76b2SOeNbmV-1">
                    &#xa;
                    <mxGeometry x="450" y="70" width="40" height="20" as="geometry"/>
                    &#xa;
                </mxCell>
                &#xa;
                <mxCell id="S1ivn6MxJ76b2SOeNbmV-25" value="10" style="text;html=1;align=center;verticalAlign=middle;whiteSpace=wrap;rounded=0;fontColor=#0000FF;" vertex="1" parent="S1ivn6MxJ76b2SOeNbmV-1">
                    &#xa;
                    <mxGeometry x="450" y="90" width="40" height="20" as="geometry"/>
                    &#xa;
                </mxCell>
                &#xa;
                <mxCell id="S1ivn6MxJ76b2SOeNbmV-26" value="8" style="text;html=1;align=center;verticalAlign=middle;whiteSpace=wrap;rounded=0;fontColor=#0000FF;" vertex="1" parent="S1ivn6MxJ76b2SOeNbmV-1">
                    &#xa;
                    <mxGeometry x="450" y="110" width="40" height="20" as="geometry"/>
                    &#xa;
                </mxCell>
                &#xa;
                <mxCell id="S1ivn6MxJ76b2SOeNbmV-27" value="7" style="text;html=1;align=center;verticalAlign=middle;whiteSpace=wrap;rounded=0;fontColor=#0000FF;" vertex="1" parent="S1ivn6MxJ76b2SOeNbmV-1">
                    &#xa;
                    <mxGeometry x="450" y="130" width="40" height="20" as="geometry"/>
                    &#xa;
                </mxCell>
                &#xa;
                <mxCell id="S1ivn6MxJ76b2SOeNbmV-28" value="8" style="text;html=1;align=center;verticalAlign=middle;whiteSpace=wrap;rounded=0;fontColor=#0000FF;" vertex="1" parent="S1ivn6MxJ76b2SOeNbmV-1">
                    &#xa;
                    <mxGeometry x="450" y="150" width="40" height="20" as="geometry"/>
                    &#xa;
                </mxCell>
                &#xa;
                <mxCell id="S1ivn6MxJ76b2SOeNbmV-29" value="11" style="text;html=1;align=center;verticalAlign=middle;whiteSpace=wrap;rounded=0;fontColor=#009900;" vertex="1" parent="S1ivn6MxJ76b2SOeNbmV-1">
                    &#xa;
                    <mxGeometry x="510" y="70" width="40" height="20" as="geometry"/>
                    &#xa;
                </mxCell>
                &#xa;
                <mxCell id="S1ivn6MxJ76b2SOeNbmV-30" value="9" style="text;html=1;align=center;verticalAlign=middle;whiteSpace=wrap;rounded=0;fontColor=#009900;" vertex="1" parent="S1ivn6MxJ76b2SOeNbmV-1">
                    &#xa;
                    <mxGeometry x="510" y="90" width="40" height="20" as="geometry"/>
                    &#xa;
                </mxCell>
                &#xa;
                <mxCell id="S1ivn6MxJ76b2SOeNbmV-31" value="13" style="text;html=1;align=center;verticalAlign=middle;whiteSpace=wrap;rounded=0;fontColor=#009900;" vertex="1" parent="S1ivn6MxJ76b2SOeNbmV-1">
                    &#xa;
                    <mxGeometry x="510" y="110" width="40" height="20" as="geometry"/>
                    &#xa;
                </mxCell>
                &#xa;
                <mxCell id="S1ivn6MxJ76b2SOeNbmV-32" value="12" style="text;html=1;align=center;verticalAlign=middle;whiteSpace=wrap;rounded=0;fontColor=#009900;" vertex="1" parent="S1ivn6MxJ76b2SOeNbmV-1">
                    &#xa;
                    <mxGeometry x="510" y="130" width="40" height="20" as="geometry"/>
                    &#xa;
                </mxCell>
                &#xa;
                <mxCell id="S1ivn6MxJ76b2SOeNbmV-33" value="11" style="text;html=1;align=center;verticalAlign=middle;whiteSpace=wrap;rounded=0;fontColor=#009900;" vertex="1" parent="S1ivn6MxJ76b2SOeNbmV-1">
                    &#xa;
                    <mxGeometry x="510" y="150" width="40" height="20" as="geometry"/>
                    &#xa;
                </mxCell>
                &#xa;
                <mxCell id="S1ivn6MxJ76b2SOeNbmV-34" value="7" style="text;html=1;align=center;verticalAlign=middle;whiteSpace=wrap;rounded=0;fontColor=#FF0000;" vertex="1" parent="S1ivn6MxJ76b2SOeNbmV-1">
                    &#xa;
                    <mxGeometry x="570" y="70" width="40" height="20" as="geometry"/>
                    &#xa;
                </mxCell>
                &#xa;
                <mxCell id="S1ivn6MxJ76b2SOeNbmV-35" value="8" style="text;html=1;align=center;verticalAlign=middle;whiteSpace=wrap;rounded=0;fontColor=#FF0000;" vertex="1" parent="S1ivn6MxJ76b2SOeNbmV-1">
                    &#xa;
                    <mxGeometry x="570" y="90" width="40" height="20" as="geometry"/>
                    &#xa;
                </mxCell>
                &#xa;
                <mxCell id="S1ivn6MxJ76b2SOeNbmV-36" value="8" style="text;html=1;align=center;verticalAlign=middle;whiteSpace=wrap;rounded=0;fontColor=#FF0000;" vertex="1" parent="S1ivn6MxJ76b2SOeNbmV-1">
                    &#xa;
                    <mxGeometry x="570" y="110" width="40" height="20" as="geometry"/>
                    &#xa;
                </mxCell>
                &#xa;
                <mxCell id="S1ivn6MxJ76b2SOeNbmV-37" value="7" style="text;html=1;align=center;verticalAlign=middle;whiteSpace=wrap;rounded=0;fontColor=#FF0000;" vertex="1" parent="S1ivn6MxJ76b2SOeNbmV-1">
                    &#xa;
                    <mxGeometry x="570" y="150" width="40" height="20" as="geometry"/>
                    &#xa;
                </mxCell>
                &#xa;
                <mxCell id="S1ivn6MxJ76b2SOeNbmV-38" value="0" style="text;html=1;align=center;verticalAlign=middle;whiteSpace=wrap;rounded=0;fontColor=#FF0000;" vertex="1" parent="S1ivn6MxJ76b2SOeNbmV-1">
                    &#xa;
                    <mxGeometry x="570" y="130" width="40" height="20" as="geometry"/>
                    &#xa;
                </mxCell>
                &#xa;
                <mxCell id="S1ivn6MxJ76b2SOeNbmV-39" value="Antibiotic 1" style="text;html=1;align=center;verticalAlign=middle;whiteSpace=wrap;rounded=0;fontColor=#0000FF;fontStyle=1" vertex="1" parent="S1ivn6MxJ76b2SOeNbmV-1">
                    &#xa;
                    <mxGeometry x="250" y="40" width="40" height="20" as="geometry"/>
                    &#xa;
                </mxCell>
                &#xa;
                <mxCell id="S1ivn6MxJ76b2SOeNbmV-40" value="Antibiotic 2" style="text;html=1;align=center;verticalAlign=middle;whiteSpace=wrap;rounded=0;fontColor=#009900;fontStyle=1" vertex="1" parent="S1ivn6MxJ76b2SOeNbmV-1">
                    &#xa;
                    <mxGeometry x="310" y="40" width="40" height="20" as="geometry"/>
                    &#xa;
                </mxCell>
                &#xa;
                <mxCell id="S1ivn6MxJ76b2SOeNbmV-41" value="Antibiotic 3" style="text;html=1;align=center;verticalAlign=middle;whiteSpace=wrap;rounded=0;fontColor=#FF0000;fontStyle=1" vertex="1" parent="S1ivn6MxJ76b2SOeNbmV-1">
                    &#xa;
                    <mxGeometry x="370" y="40" width="40" height="20" as="geometry"/>
                    &#xa;
                </mxCell>
                &#xa;
                <mxCell id="S1ivn6MxJ76b2SOeNbmV-42" value="0.01" style="text;html=1;align=center;verticalAlign=middle;whiteSpace=wrap;rounded=0;fontColor=#0000FF;" vertex="1" parent="S1ivn6MxJ76b2SOeNbmV-1">
                    &#xa;
                    <mxGeometry x="250" y="70" width="40" height="20" as="geometry"/>
                    &#xa;
                </mxCell>
                &#xa;
                <mxCell id="S1ivn6MxJ76b2SOeNbmV-43" value="2" style="text;html=1;align=center;verticalAlign=middle;whiteSpace=wrap;rounded=0;fontColor=#0000FF;" vertex="1" parent="S1ivn6MxJ76b2SOeNbmV-1">
                    &#xa;
                    <mxGeometry x="250" y="90" width="40" height="20" as="geometry"/>
                    &#xa;
                </mxCell>
                &#xa;
                <mxCell id="S1ivn6MxJ76b2SOeNbmV-44" value="0.5" style="text;html=1;align=center;verticalAlign=middle;whiteSpace=wrap;rounded=0;fontColor=#0000FF;" vertex="1" parent="S1ivn6MxJ76b2SOeNbmV-1">
                    &#xa;
                    <mxGeometry x="250" y="110" width="40" height="20" as="geometry"/>
                    &#xa;
                </mxCell>
                &#xa;
                <mxCell id="S1ivn6MxJ76b2SOeNbmV-45" value="0.25" style="text;html=1;align=center;verticalAlign=middle;whiteSpace=wrap;rounded=0;fontColor=#0000FF;" vertex="1" parent="S1ivn6MxJ76b2SOeNbmV-1">
                    &#xa;
                    <mxGeometry x="250" y="130" width="40" height="20" as="geometry"/>
                    &#xa;
                </mxCell>
                &#xa;
                <mxCell id="S1ivn6MxJ76b2SOeNbmV-46" value="0.5" style="text;html=1;align=center;verticalAlign=middle;whiteSpace=wrap;rounded=0;fontColor=#0000FF;" vertex="1" parent="S1ivn6MxJ76b2SOeNbmV-1">
                    &#xa;
                    <mxGeometry x="250" y="150" width="40" height="20" as="geometry"/>
                    &#xa;
                </mxCell>
                &#xa;
                <mxCell id="S1ivn6MxJ76b2SOeNbmV-47" value="4" style="text;html=1;align=center;verticalAlign=middle;whiteSpace=wrap;rounded=0;fontColor=#009900;" vertex="1" parent="S1ivn6MxJ76b2SOeNbmV-1">
                    &#xa;
                    <mxGeometry x="310" y="70" width="40" height="20" as="geometry"/>
                    &#xa;
                </mxCell>
                &#xa;
                <mxCell id="S1ivn6MxJ76b2SOeNbmV-48" value="1" style="text;html=1;align=center;verticalAlign=middle;whiteSpace=wrap;rounded=0;fontColor=#009900;" vertex="1" parent="S1ivn6MxJ76b2SOeNbmV-1">
                    &#xa;
                    <mxGeometry x="310" y="90" width="40" height="20" as="geometry"/>
                    &#xa;
                </mxCell>
                &#xa;
                <mxCell id="S1ivn6MxJ76b2SOeNbmV-49" value="16" style="text;html=1;align=center;verticalAlign=middle;whiteSpace=wrap;rounded=0;fontColor=#009900;" vertex="1" parent="S1ivn6MxJ76b2SOeNbmV-1">
                    &#xa;
                    <mxGeometry x="310" y="110" width="40" height="20" as="geometry"/>
                    &#xa;
                </mxCell>
                &#xa;
                <mxCell id="S1ivn6MxJ76b2SOeNbmV-50" value="8" style="text;html=1;align=center;verticalAlign=middle;whiteSpace=wrap;rounded=0;fontColor=#009900;" vertex="1" parent="S1ivn6MxJ76b2SOeNbmV-1">
                    &#xa;
                    <mxGeometry x="310" y="130" width="40" height="20" as="geometry"/>
                    &#xa;
                </mxCell>
                &#xa;
                <mxCell id="S1ivn6MxJ76b2SOeNbmV-51" value="4" style="text;html=1;align=center;verticalAlign=middle;whiteSpace=wrap;rounded=0;fontColor=#009900;" vertex="1" parent="S1ivn6MxJ76b2SOeNbmV-1">
                    &#xa;
                    <mxGeometry x="310" y="150" width="40" height="20" as="geometry"/>
                    &#xa;
                </mxCell>
                &#xa;
                <mxCell id="S1ivn6MxJ76b2SOeNbmV-52" value="0.25" style="text;html=1;align=center;verticalAlign=middle;whiteSpace=wrap;rounded=0;fontColor=#FF0000;" vertex="1" parent="S1ivn6MxJ76b2SOeNbmV-1">
                    &#xa;
                    <mxGeometry x="370" y="70" width="40" height="20" as="geometry"/>
                    &#xa;
                </mxCell>
                &#xa;
                <mxCell id="S1ivn6MxJ76b2SOeNbmV-53" value="0.5" style="text;html=1;align=center;verticalAlign=middle;whiteSpace=wrap;rounded=0;fontColor=#FF0000;" vertex="1" parent="S1ivn6MxJ76b2SOeNbmV-1">
                    &#xa;
                    <mxGeometry x="370" y="90" width="40" height="20" as="geometry"/>
                    &#xa;
                </mxCell>
                &#xa;
                <mxCell id="S1ivn6MxJ76b2SOeNbmV-54" value="0.5" style="text;html=1;align=center;verticalAlign=middle;whiteSpace=wrap;rounded=0;fontColor=#FF0000;" vertex="1" parent="S1ivn6MxJ76b2SOeNbmV-1">
                    &#xa;
                    <mxGeometry x="370" y="110" width="40" height="20" as="geometry"/>
                    &#xa;
                </mxCell>
                &#xa;
                <mxCell id="S1ivn6MxJ76b2SOeNbmV-55" value="0.25" style="text;html=1;align=center;verticalAlign=middle;whiteSpace=wrap;rounded=0;fontColor=#FF0000;" vertex="1" parent="S1ivn6MxJ76b2SOeNbmV-1">
                    &#xa;
                    <mxGeometry x="370" y="150" width="40" height="20" as="geometry"/>
                    &#xa;
                </mxCell>
                &#xa;
                <mxCell id="S1ivn6MxJ76b2SOeNbmV-56" value="-1" style="text;html=1;align=center;verticalAlign=middle;whiteSpace=wrap;rounded=0;fontColor=#FF0000;" vertex="1" parent="S1ivn6MxJ76b2SOeNbmV-1">
                    &#xa;
                    <mxGeometry x="370" y="130" width="40" height="20" as="geometry"/>
                    &#xa;
                </mxCell>
                &#xa;
                <mxCell id="S1ivn6MxJ76b2SOeNbmV-57" value="" style="endArrow=classic;html=1;fontColor=#FF0000;strokeColor=#000000;" edge="1" parent="S1ivn6MxJ76b2SOeNbmV-1">
                    &#xa;
                    <mxGeometry width="50" height="50" relative="1" as="geometry">
                        &#xa;
                        <mxPoint x="210" y="120" as="sourcePoint"/>
                        &#xa;
                        <mxPoint x="240" y="120" as="targetPoint"/>
                        &#xa;
                    </mxGeometry>
                    &#xa;
                </mxCell>
                &#xa;
                <mxCell id="S1ivn6MxJ76b2SOeNbmV-58" value="" style="endArrow=classic;html=1;fontColor=#FF0000;strokeColor=#000000;" edge="1" parent="S1ivn6MxJ76b2SOeNbmV-1">
                    &#xa;
                    <mxGeometry width="50" height="50" relative="1" as="geometry">
                        &#xa;
                        <mxPoint x="419.9999999999999" y="119.66" as="sourcePoint"/>
                        &#xa;
                        <mxPoint x="449.9999999999999" y="119.66" as="targetPoint"/>
                        &#xa;
                    </mxGeometry>
                    &#xa;
                </mxCell>
                &#xa;
                <mxCell id="S1ivn6MxJ76b2SOeNbmV-59" value="" style="endArrow=classic;html=1;fontColor=#FF0000;strokeColor=#000000;" edge="1" parent="S1ivn6MxJ76b2SOeNbmV-1">
                    &#xa;
                    <mxGeometry width="50" height="50" relative="1" as="geometry">
                        &#xa;
                        <mxPoint x="329.8599999999999" y="170" as="sourcePoint"/>
                        &#xa;
                        <mxPoint x="329.86" y="190" as="targetPoint"/>
                        &#xa;
                    </mxGeometry>
                    &#xa;
                </mxCell>
                &#xa;
                <mxCell id="S1ivn6MxJ76b2SOeNbmV-60" value="&lt;b&gt;Concatenated MICs&lt;/b&gt;" style="text;html=1;strokeColor=none;fillColor=none;align=center;verticalAlign=middle;whiteSpace=wrap;rounded=0;fontColor=#000000;" vertex="1" parent="S1ivn6MxJ76b2SOeNbmV-1">
                    &#xa;
                    <mxGeometry x="310" y="200" width="40" height="20" as="geometry"/>
                    &#xa;
                </mxCell>
                &#xa;
                <mxCell id="S1ivn6MxJ76b2SOeNbmV-61" value="0.01" style="text;html=1;align=center;verticalAlign=middle;whiteSpace=wrap;rounded=0;fontColor=#0000FF;" vertex="1" parent="S1ivn6MxJ76b2SOeNbmV-1">
                    &#xa;
                    <mxGeometry x="310" y="230" width="40" height="20" as="geometry"/>
                    &#xa;
                </mxCell>
                &#xa;
                <mxCell id="S1ivn6MxJ76b2SOeNbmV-62" value="4" style="text;html=1;align=center;verticalAlign=middle;whiteSpace=wrap;rounded=0;fontColor=#009900;" vertex="1" parent="S1ivn6MxJ76b2SOeNbmV-1">
                    &#xa;
                    <mxGeometry x="310" y="250" width="40" height="20" as="geometry"/>
                    &#xa;
                </mxCell>
                &#xa;
                <mxCell id="S1ivn6MxJ76b2SOeNbmV-63" value="0.25" style="text;html=1;align=center;verticalAlign=middle;whiteSpace=wrap;rounded=0;fontColor=#FF0000;" vertex="1" parent="S1ivn6MxJ76b2SOeNbmV-1">
                    &#xa;
                    <mxGeometry x="310" y="270" width="40" height="20" as="geometry"/>
                    &#xa;
                </mxCell>
                &#xa;
                <mxCell id="S1ivn6MxJ76b2SOeNbmV-64" value="2" style="text;html=1;align=center;verticalAlign=middle;whiteSpace=wrap;rounded=0;fontColor=#0000FF;" vertex="1" parent="S1ivn6MxJ76b2SOeNbmV-1">
                    &#xa;
                    <mxGeometry x="310" y="290" width="40" height="20" as="geometry"/>
                    &#xa;
                </mxCell>
                &#xa;
                <mxCell id="S1ivn6MxJ76b2SOeNbmV-65" value="1" style="text;html=1;align=center;verticalAlign=middle;whiteSpace=wrap;rounded=0;fontColor=#009900;" vertex="1" parent="S1ivn6MxJ76b2SOeNbmV-1">
                    &#xa;
                    <mxGeometry x="310" y="310" width="40" height="20" as="geometry"/>
                    &#xa;
                </mxCell>
                &#xa;
                <mxCell id="S1ivn6MxJ76b2SOeNbmV-66" value="0.5" style="text;html=1;align=center;verticalAlign=middle;whiteSpace=wrap;rounded=0;fontColor=#FF0000;" vertex="1" parent="S1ivn6MxJ76b2SOeNbmV-1">
                    &#xa;
                    <mxGeometry x="310" y="330" width="40" height="20" as="geometry"/>
                    &#xa;
                </mxCell>
                &#xa;
                <mxCell id="S1ivn6MxJ76b2SOeNbmV-67" value="&lt;font color=&quot;#000000&quot; style=&quot;line-height: 40% ; font-size: 20px&quot;&gt;.&lt;br&gt;.&lt;br&gt;.&lt;/font&gt;" style="text;html=1;align=center;verticalAlign=middle;whiteSpace=wrap;rounded=0;fontColor=#FF0000;" vertex="1" parent="S1ivn6MxJ76b2SOeNbmV-1">
                    &#xa;
                    <mxGeometry x="310" y="360" width="40" height="20" as="geometry"/>
                    &#xa;
                </mxCell>
                &#xa;
                <mxCell id="S1ivn6MxJ76b2SOeNbmV-68" value="&lt;b&gt;Sorted Unique MICs&lt;/b&gt;" style="text;html=1;strokeColor=none;fillColor=none;align=center;verticalAlign=middle;whiteSpace=wrap;rounded=0;fontColor=#000000;" vertex="1" parent="S1ivn6MxJ76b2SOeNbmV-1">
                    &#xa;
                    <mxGeometry x="510" y="200" width="40" height="20" as="geometry"/>
                    &#xa;
                </mxCell>
                &#xa;
                <mxCell id="S1ivn6MxJ76b2SOeNbmV-69" value="-1" style="text;html=1;align=center;verticalAlign=middle;whiteSpace=wrap;rounded=0;fontColor=#000000;" vertex="1" parent="S1ivn6MxJ76b2SOeNbmV-1">
                    &#xa;
                    <mxGeometry x="510" y="230" width="40" height="20" as="geometry"/>
                    &#xa;
                </mxCell>
                &#xa;
                <mxCell id="S1ivn6MxJ76b2SOeNbmV-70" value="0" style="text;html=1;align=center;verticalAlign=middle;whiteSpace=wrap;rounded=0;fontColor=#000000;" vertex="1" parent="S1ivn6MxJ76b2SOeNbmV-1">
                    &#xa;
                    <mxGeometry x="510" y="250" width="40" height="20" as="geometry"/>
                    &#xa;
                </mxCell>
                &#xa;
                <mxCell id="S1ivn6MxJ76b2SOeNbmV-71" value="0.01" style="text;html=1;align=center;verticalAlign=middle;whiteSpace=wrap;rounded=0;fontColor=#000000;" vertex="1" parent="S1ivn6MxJ76b2SOeNbmV-1">
                    &#xa;
                    <mxGeometry x="510" y="270" width="40" height="20" as="geometry"/>
                    &#xa;
                </mxCell>
                &#xa;
                <mxCell id="S1ivn6MxJ76b2SOeNbmV-72" value="0.02" style="text;html=1;align=center;verticalAlign=middle;whiteSpace=wrap;rounded=0;fontColor=#000000;" vertex="1" parent="S1ivn6MxJ76b2SOeNbmV-1">
                    &#xa;
                    <mxGeometry x="510" y="290" width="40" height="20" as="geometry"/>
                    &#xa;
                </mxCell>
                &#xa;
                <mxCell id="S1ivn6MxJ76b2SOeNbmV-73" value="0.03" style="text;html=1;align=center;verticalAlign=middle;whiteSpace=wrap;rounded=0;fontColor=#000000;" vertex="1" parent="S1ivn6MxJ76b2SOeNbmV-1">
                    &#xa;
                    <mxGeometry x="510" y="310" width="40" height="20" as="geometry"/>
                    &#xa;
                </mxCell>
                &#xa;
                <mxCell id="S1ivn6MxJ76b2SOeNbmV-74" value="0.06" style="text;html=1;align=center;verticalAlign=middle;whiteSpace=wrap;rounded=0;fontColor=#000000;" vertex="1" parent="S1ivn6MxJ76b2SOeNbmV-1">
                    &#xa;
                    <mxGeometry x="510" y="330" width="40" height="20" as="geometry"/>
                    &#xa;
                </mxCell>
                &#xa;
                <mxCell id="S1ivn6MxJ76b2SOeNbmV-75" value="&lt;font style=&quot;line-height: 40% ; font-size: 20px&quot;&gt;.&lt;br&gt;.&lt;br&gt;.&lt;/font&gt;" style="text;html=1;align=center;verticalAlign=middle;whiteSpace=wrap;rounded=0;fontColor=#000000;" vertex="1" parent="S1ivn6MxJ76b2SOeNbmV-1">
                    &#xa;
                    <mxGeometry x="510" y="360" width="40" height="20" as="geometry"/>
                    &#xa;
                </mxCell>
                &#xa;
                <mxCell id="S1ivn6MxJ76b2SOeNbmV-76" value="" style="endArrow=classic;html=1;fontColor=#FF0000;strokeColor=#000000;" edge="1" parent="S1ivn6MxJ76b2SOeNbmV-1">
                    &#xa;
                    <mxGeometry width="50" height="50" relative="1" as="geometry">
                        &#xa;
                        <mxPoint x="529.7999999999998" y="190" as="sourcePoint"/>
                        &#xa;
                        <mxPoint x="529.8" y="170" as="targetPoint"/>
                        &#xa;
                    </mxGeometry>
                    &#xa;
                </mxCell>
                &#xa;
                <mxCell id="S1ivn6MxJ76b2SOeNbmV-77" value="" style="endArrow=classic;html=1;fontColor=#FF0000;strokeColor=#000000;" edge="1" parent="S1ivn6MxJ76b2SOeNbmV-1">
                    &#xa;
                    <mxGeometry width="50" height="50" relative="1" as="geometry">
                        &#xa;
                        <mxPoint x="400" y="240" as="sourcePoint"/>
                        &#xa;
                        <mxPoint x="480" y="240" as="targetPoint"/>
                        &#xa;
                    </mxGeometry>
                    &#xa;
                </mxCell>
                &#xa;
            </root>
            &#xa;
        </mxGraphModel>
        &#xa;
    </diagram>
    <diagram id="gy-lphXZN3Sqy0OcUqPZ" name="Amino Acid Data">
        &#xa;
        <mxGraphModel dx="502" dy="294" grid="1" gridSize="10" guides="1" tooltips="1" connect="1" arrows="1" fold="1" page="1" pageScale="1" pageWidth="850" pageHeight="1100" math="0" shadow="0">
            &#xa;
            <root>
                &#xa;
                <mxCell id="fUsNKSQHPw8V8M0MxEEM-0"/>
                &#xa;
                <mxCell id="fUsNKSQHPw8V8M0MxEEM-1" parent="fUsNKSQHPw8V8M0MxEEM-0"/>
                &#xa;
                <mxCell id="fUsNKSQHPw8V8M0MxEEM-2" value="&lt;font color=&quot;#009900&quot; style=&quot;font-size: 15px;&quot;&gt;M&lt;/font&gt; &lt;font color=&quot;#0000ff&quot; style=&quot;font-size: 15px;&quot;&gt;K &lt;/font&gt;&lt;font color=&quot;#6600cc&quot; style=&quot;font-size: 15px;&quot;&gt;R &lt;/font&gt;&lt;font color=&quot;#cc6600&quot; style=&quot;font-size: 15px;&quot;&gt;N &lt;/font&gt;&lt;font color=&quot;#cccc00&quot; style=&quot;font-size: 15px;&quot;&gt;I &lt;/font&gt;&lt;font color=&quot;#ff0000&quot; style=&quot;font-size: 15px;&quot;&gt;L&lt;/font&gt; . . . &lt;font color=&quot;#009900&quot; style=&quot;font-size: 15px;&quot;&gt;M &lt;/font&gt;&lt;font color=&quot;#0000ff&quot; style=&quot;font-size: 15px;&quot;&gt;K &lt;/font&gt;&lt;font color=&quot;#6600cc&quot; style=&quot;font-size: 15px;&quot;&gt;R &lt;/font&gt;&lt;font color=&quot;#0000ff&quot; style=&quot;font-size: 15px;&quot;&gt;K &lt;/font&gt;&lt;font color=&quot;#cc0066&quot; style=&quot;font-size: 15px;&quot;&gt;V &lt;/font&gt;&lt;font color=&quot;#ff0000&quot; style=&quot;font-size: 15px;&quot;&gt;L&lt;/font&gt; . . . &lt;font color=&quot;#009900&quot; style=&quot;font-size: 15px;&quot;&gt;M &lt;/font&gt;&lt;font color=&quot;#0000ff&quot; style=&quot;font-size: 15px;&quot;&gt;K &lt;/font&gt;&lt;font color=&quot;#6600cc&quot; style=&quot;font-size: 15px;&quot;&gt;R &lt;/font&gt;&lt;font color=&quot;#0000ff&quot; style=&quot;font-size: 15px;&quot;&gt;K &lt;/font&gt;&lt;font color=&quot;#cc0066&quot; style=&quot;font-size: 15px;&quot;&gt;V &lt;/font&gt;&lt;font color=&quot;#ff0000&quot; style=&quot;font-size: 15px;&quot;&gt;L &lt;/font&gt;. . ." style="text;html=1;strokeColor=none;fillColor=none;align=center;verticalAlign=middle;whiteSpace=wrap;rounded=0;fontColor=#000000;fontSize=15;" vertex="1" parent="fUsNKSQHPw8V8M0MxEEM-1">
                    &#xa;
                    <mxGeometry x="400" y="310" width="340" height="20" as="geometry"/>
                    &#xa;
                </mxCell>
                &#xa;
                <mxCell id="fUsNKSQHPw8V8M0MxEEM-4" value="" style="shape=partialRectangle;whiteSpace=wrap;html=1;bottom=1;right=1;left=1;top=0;fillColor=none;routingCenterX=-0.5;fontColor=#000000;rotation=-180;strokeColor=#000000;fontSize=15;" vertex="1" parent="fUsNKSQHPw8V8M0MxEEM-1">
                    &#xa;
                    <mxGeometry x="406" y="300" width="94" height="10" as="geometry"/>
                    &#xa;
                </mxCell>
                &#xa;
                <mxCell id="fUsNKSQHPw8V8M0MxEEM-5" value="" style="shape=partialRectangle;whiteSpace=wrap;html=1;bottom=1;right=1;left=1;top=0;fillColor=none;routingCenterX=-0.5;fontColor=#000000;rotation=-180;strokeColor=#000000;fontSize=15;" vertex="1" parent="fUsNKSQHPw8V8M0MxEEM-1">
                    &#xa;
                    <mxGeometry x="510" y="300" width="105" height="10" as="geometry"/>
                    &#xa;
                </mxCell>
                &#xa;
                <mxCell id="fUsNKSQHPw8V8M0MxEEM-6" value="" style="shape=partialRectangle;whiteSpace=wrap;html=1;bottom=1;right=1;left=1;top=0;fillColor=none;routingCenterX=-0.5;fontColor=#000000;rotation=-180;strokeColor=#000000;fontSize=15;" vertex="1" parent="fUsNKSQHPw8V8M0MxEEM-1">
                    &#xa;
                    <mxGeometry x="625" y="300" width="110" height="10" as="geometry"/>
                    &#xa;
                </mxCell>
                &#xa;
                <mxCell id="fUsNKSQHPw8V8M0MxEEM-7" value="OMPK35" style="text;html=1;strokeColor=none;fillColor=none;align=center;verticalAlign=middle;whiteSpace=wrap;rounded=0;fontColor=#000000;fontSize=15;" vertex="1" parent="fUsNKSQHPw8V8M0MxEEM-1">
                    &#xa;
                    <mxGeometry x="433" y="280" width="40" height="20" as="geometry"/>
                    &#xa;
                </mxCell>
                &#xa;
                <mxCell id="fUsNKSQHPw8V8M0MxEEM-8" value="OMPK36" style="text;html=1;strokeColor=none;fillColor=none;align=center;verticalAlign=middle;whiteSpace=wrap;rounded=0;fontColor=#000000;fontSize=15;" vertex="1" parent="fUsNKSQHPw8V8M0MxEEM-1">
                    &#xa;
                    <mxGeometry x="542.5" y="280" width="40" height="20" as="geometry"/>
                    &#xa;
                </mxCell>
                &#xa;
                <mxCell id="fUsNKSQHPw8V8M0MxEEM-9" value="OMPK37" style="text;html=1;strokeColor=none;fillColor=none;align=center;verticalAlign=middle;whiteSpace=wrap;rounded=0;fontColor=#000000;fontSize=15;" vertex="1" parent="fUsNKSQHPw8V8M0MxEEM-1">
                    &#xa;
                    <mxGeometry x="660" y="280" width="40" height="20" as="geometry"/>
                    &#xa;
                </mxCell>
                &#xa;
                <mxCell id="fUsNKSQHPw8V8M0MxEEM-10" value="&lt;font style=&quot;font-size: 15px ; line-height: 40%&quot;&gt;.&lt;br style=&quot;font-size: 15px&quot;&gt;.&lt;br style=&quot;font-size: 15px&quot;&gt;.&lt;/font&gt;" style="text;html=1;strokeColor=none;fillColor=none;align=center;verticalAlign=middle;whiteSpace=wrap;rounded=0;fontColor=#000000;fontSize=15;" vertex="1" parent="fUsNKSQHPw8V8M0MxEEM-1">
                    &#xa;
                    <mxGeometry x="548.75" y="340" width="27.5" height="10" as="geometry"/>
                    &#xa;
                </mxCell>
                &#xa;
                <mxCell id="fUsNKSQHPw8V8M0MxEEM-11" value="Isolate 1" style="text;html=1;strokeColor=none;fillColor=none;align=center;verticalAlign=middle;whiteSpace=wrap;rounded=0;fontColor=#000000;fontSize=15;" vertex="1" parent="fUsNKSQHPw8V8M0MxEEM-1">
                    &#xa;
                    <mxGeometry x="340" y="310" width="60" height="20" as="geometry"/>
                    &#xa;
                </mxCell>
                &#xa;
                <mxCell id="fUsNKSQHPw8V8M0MxEEM-12" value="Isolate 2" style="text;html=1;strokeColor=none;fillColor=none;align=center;verticalAlign=middle;whiteSpace=wrap;rounded=0;fontColor=#000000;fontSize=15;" vertex="1" parent="fUsNKSQHPw8V8M0MxEEM-1">
                    &#xa;
                    <mxGeometry x="340" y="330" width="60" height="20" as="geometry"/>
                    &#xa;
                </mxCell>
                &#xa;
                <mxCell id="fUsNKSQHPw8V8M0MxEEM-13" value="Isolate 3" style="text;html=1;strokeColor=none;fillColor=none;align=center;verticalAlign=middle;whiteSpace=wrap;rounded=0;fontColor=#000000;fontSize=15;" vertex="1" parent="fUsNKSQHPw8V8M0MxEEM-1">
                    &#xa;
                    <mxGeometry x="340" y="350" width="60" height="20" as="geometry"/>
                    &#xa;
                </mxCell>
                &#xa;
                <mxCell id="fUsNKSQHPw8V8M0MxEEM-14" value="&lt;font style=&quot;font-size: 15px;&quot;&gt;.&lt;br style=&quot;font-size: 15px;&quot;&gt;.&lt;br style=&quot;font-size: 15px;&quot;&gt;.&lt;/font&gt;" style="text;html=1;strokeColor=none;fillColor=none;align=center;verticalAlign=middle;whiteSpace=wrap;rounded=0;fontColor=#000000;fontSize=15;" vertex="1" parent="fUsNKSQHPw8V8M0MxEEM-1">
                    &#xa;
                    <mxGeometry x="350" y="380" width="40" height="20" as="geometry"/>
                    &#xa;
                </mxCell>
                &#xa;
            </root>
            &#xa;
        </mxGraphModel>
        &#xa;
    </diagram>
</mxfile>